<?xml version="1.0" encoding="UTF-8" standalone="no"?>
<!DOCTYPE svg PUBLIC "-//W3C//DTD SVG 1.1//EN"
 "http://www.w3.org/Graphics/SVG/1.1/DTD/svg11.dtd">
<!-- Generated by graphviz version 2.28.0 (20111111.1505)
 -->
<!-- Title: controllers_diagram Pages: 1 -->
<svg width="401pt" height="244pt"
 viewBox="0.00 0.00 401.00 244.00" xmlns="http://www.w3.org/2000/svg" xmlns:xlink="http://www.w3.org/1999/xlink">
<g id="graph1" class="graph" transform="scale(1 1) rotate(0) translate(4 240)">
<title>controllers_diagram</title>
<polygon fill="white" stroke="white" points="-4,5 -4,-240 398,-240 398,5 -4,5"/>
<!-- _diagram_info -->
<g id="node1" class="node"><title>_diagram_info</title>
<text text-anchor="start" x="195" y="-220.3" font-family="Times,serif" font-size="13.00">Controllers diagram</text>
<text text-anchor="start" x="195" y="-205.3" font-family="Times,serif" font-size="13.00">Date: Dec 07 2011 &#45; 10:33</text>
<text text-anchor="start" x="195" y="-190.3" font-family="Times,serif" font-size="13.00">Migration version: 20111207153221</text>
<text text-anchor="start" x="195" y="-175.3" font-family="Times,serif" font-size="13.00">Generated by RailRoady 1.0.2</text>
<text text-anchor="start" x="195" y="-160.3" font-family="Times,serif" font-size="13.00">http://railroady.prestonlee.com</text>
</g>
<!-- ApplicationController -->
<g id="node2" class="node"><title>ApplicationController</title>
<polyline fill="none" stroke="black" points="12,-0.5 182,-0.5 "/>
<path fill="none" stroke="black" d="M182,-0.5C188,-0.5 194,-6.5 194,-12.5"/>
<polyline fill="none" stroke="black" points="194,-12.5 194,-100.5 "/>
<path fill="none" stroke="black" d="M194,-100.5C194,-106.5 188,-112.5 182,-112.5"/>
<polyline fill="none" stroke="black" points="182,-112.5 12,-112.5 "/>
<path fill="none" stroke="black" d="M12,-112.5C6,-112.5 0,-106.5 0,-100.5"/>
<polyline fill="none" stroke="black" points="0,-100.5 0,-12.5 "/>
<path fill="none" stroke="black" d="M0,-12.5C0,-6.5 6,-0.5 12,-0.5"/>
<text text-anchor="middle" x="97" y="-95.9" font-family="Times,serif" font-size="14.00">ApplicationController</text>
<polyline fill="none" stroke="black" points="0,-88.5 194,-88.5 "/>
<text text-anchor="start" x="8" y="-71.9" font-family="Times,serif" font-size="14.00">_one_time_conditions_valid_8?</text>
<polyline fill="none" stroke="black" points="0,-64.5 194,-64.5 "/>
<polyline fill="none" stroke="black" points="0,-40.5 194,-40.5 "/>
<text text-anchor="start" x="8" y="-23.9" font-family="Times,serif" font-size="14.00">_layout</text>
<text text-anchor="start" x="8" y="-7.9" font-family="Times,serif" font-size="14.00">_run_process_action_callbacks</text>
</g>
</g>
</svg>
