<?xml version="1.0" encoding="UTF-8" standalone="no"?>
<!DOCTYPE svg PUBLIC "-//W3C//DTD SVG 1.1//EN"
 "http://www.w3.org/Graphics/SVG/1.1/DTD/svg11.dtd">
<!-- Generated by graphviz version 2.28.0 (20111111.1505)
 -->
<!-- Title: models_diagram Pages: 1 -->
<svg width="1197pt" height="540pt"
 viewBox="0.00 0.00 1197.00 540.00" xmlns="http://www.w3.org/2000/svg" xmlns:xlink="http://www.w3.org/1999/xlink">
<g id="graph1" class="graph" transform="scale(1 1) rotate(0) translate(4 536)">
<title>models_diagram</title>
<polygon fill="white" stroke="white" points="-4,5 -4,-536 1194,-536 1194,5 -4,5"/>
<!-- _diagram_info -->
<g id="node1" class="node"><title>_diagram_info</title>
<text text-anchor="start" x="311" y="-500.8" font-family="Times,serif" font-size="13.00">Models diagram</text>
<text text-anchor="start" x="311" y="-485.8" font-family="Times,serif" font-size="13.00">Date: Dec 07 2011 &#45; 15:32</text>
<text text-anchor="start" x="311" y="-470.8" font-family="Times,serif" font-size="13.00">Migration version: 20111207202846</text>
<text text-anchor="start" x="311" y="-455.8" font-family="Times,serif" font-size="13.00">Generated by RailRoady 1.0.2</text>
<text text-anchor="start" x="311" y="-440.8" font-family="Times,serif" font-size="13.00">http://railroady.prestonlee.com</text>
</g>
<!-- Chassis -->
<g id="node2" class="node"><title>Chassis</title>
<polyline fill="none" stroke="black" points="11.5,-151 120.5,-151 "/>
<path fill="none" stroke="black" d="M120.5,-151C126.5,-151 132.5,-157 132.5,-163"/>
<polyline fill="none" stroke="black" points="132.5,-163 132.5,-219 "/>
<path fill="none" stroke="black" d="M132.5,-219C132.5,-225 126.5,-231 120.5,-231"/>
<polyline fill="none" stroke="black" points="120.5,-231 11.5,-231 "/>
<path fill="none" stroke="black" d="M11.5,-231C5.5,-231 -0.5,-225 -0.5,-219"/>
<polyline fill="none" stroke="black" points="-0.5,-219 -0.5,-163 "/>
<path fill="none" stroke="black" d="M-0.5,-163C-0.5,-157 5.5,-151 11.5,-151"/>
<text text-anchor="middle" x="66" y="-214.4" font-family="Times,serif" font-size="14.00">Chassis</text>
<polyline fill="none" stroke="black" points="-0.5,-207 132.5,-207 "/>
<text text-anchor="start" x="7.5" y="-190.4" font-family="Times,serif" font-size="14.00">name :string</text>
<text text-anchor="start" x="7.5" y="-174.4" font-family="Times,serif" font-size="14.00">created_at :datetime</text>
<text text-anchor="start" x="7.5" y="-158.4" font-family="Times,serif" font-size="14.00">updated_at :datetime</text>
</g>
<!-- Driver -->
<g id="node3" class="node"><title>Driver</title>
<polyline fill="none" stroke="black" points="162.5,-135 271.5,-135 "/>
<path fill="none" stroke="black" d="M271.5,-135C277.5,-135 283.5,-141 283.5,-147"/>
<polyline fill="none" stroke="black" points="283.5,-147 283.5,-235 "/>
<path fill="none" stroke="black" d="M283.5,-235C283.5,-241 277.5,-247 271.5,-247"/>
<polyline fill="none" stroke="black" points="271.5,-247 162.5,-247 "/>
<path fill="none" stroke="black" d="M162.5,-247C156.5,-247 150.5,-241 150.5,-235"/>
<polyline fill="none" stroke="black" points="150.5,-235 150.5,-147 "/>
<path fill="none" stroke="black" d="M150.5,-147C150.5,-141 156.5,-135 162.5,-135"/>
<text text-anchor="middle" x="217" y="-230.4" font-family="Times,serif" font-size="14.00">Driver</text>
<polyline fill="none" stroke="black" points="150.5,-223 283.5,-223 "/>
<text text-anchor="start" x="158.5" y="-206.4" font-family="Times,serif" font-size="14.00">first_name :string</text>
<text text-anchor="start" x="158.5" y="-190.4" font-family="Times,serif" font-size="14.00">last_name :string</text>
<text text-anchor="start" x="158.5" y="-174.4" font-family="Times,serif" font-size="14.00">country :string</text>
<text text-anchor="start" x="158.5" y="-158.4" font-family="Times,serif" font-size="14.00">created_at :datetime</text>
<text text-anchor="start" x="158.5" y="-142.4" font-family="Times,serif" font-size="14.00">updated_at :datetime</text>
</g>
<!-- Engine -->
<g id="node4" class="node"><title>Engine</title>
<polyline fill="none" stroke="black" points="313.5,-159 422.5,-159 "/>
<path fill="none" stroke="black" d="M422.5,-159C428.5,-159 434.5,-165 434.5,-171"/>
<polyline fill="none" stroke="black" points="434.5,-171 434.5,-211 "/>
<path fill="none" stroke="black" d="M434.5,-211C434.5,-217 428.5,-223 422.5,-223"/>
<polyline fill="none" stroke="black" points="422.5,-223 313.5,-223 "/>
<path fill="none" stroke="black" d="M313.5,-223C307.5,-223 301.5,-217 301.5,-211"/>
<polyline fill="none" stroke="black" points="301.5,-211 301.5,-171 "/>
<path fill="none" stroke="black" d="M301.5,-171C301.5,-165 307.5,-159 313.5,-159"/>
<text text-anchor="middle" x="368" y="-206.4" font-family="Times,serif" font-size="14.00">Engine</text>
<polyline fill="none" stroke="black" points="301.5,-199 434.5,-199 "/>
<text text-anchor="start" x="309.5" y="-182.4" font-family="Times,serif" font-size="14.00">created_at :datetime</text>
<text text-anchor="start" x="309.5" y="-166.4" font-family="Times,serif" font-size="14.00">updated_at :datetime</text>
</g>
<!-- Supplier -->
<g id="node11" class="node"><title>Supplier</title>
<polyline fill="none" stroke="black" points="535,-1 653,-1 "/>
<path fill="none" stroke="black" d="M653,-1C659,-1 665,-7 665,-13"/>
<polyline fill="none" stroke="black" points="665,-13 665,-85 "/>
<path fill="none" stroke="black" d="M665,-85C665,-91 659,-97 653,-97"/>
<polyline fill="none" stroke="black" points="653,-97 535,-97 "/>
<path fill="none" stroke="black" d="M535,-97C529,-97 523,-91 523,-85"/>
<polyline fill="none" stroke="black" points="523,-85 523,-13 "/>
<path fill="none" stroke="black" d="M523,-13C523,-7 529,-1 535,-1"/>
<text text-anchor="middle" x="594" y="-80.4" font-family="Times,serif" font-size="14.00">Supplier</text>
<polyline fill="none" stroke="black" points="523,-73 665,-73 "/>
<text text-anchor="start" x="531" y="-56.4" font-family="Times,serif" font-size="14.00">name :string</text>
<text text-anchor="start" x="531" y="-40.4" font-family="Times,serif" font-size="14.00">suppliable_type :string</text>
<text text-anchor="start" x="531" y="-24.4" font-family="Times,serif" font-size="14.00">created_at :datetime</text>
<text text-anchor="start" x="531" y="-8.4" font-family="Times,serif" font-size="14.00">updated_at :datetime</text>
</g>
<!-- Engine&#45;&gt;Supplier -->
<g id="edge2" class="edge"><title>Engine&#45;&gt;Supplier</title>
<path fill="none" stroke="black" d="M414.443,-153.825C423.743,-147.01 433.56,-140.111 443,-134 466.05,-119.079 491.921,-104.089 515.648,-90.9873"/>
<ellipse fill="none" stroke="black" cx="410.99" cy="-156.381" rx="4.00002" ry="4.00002"/>
<ellipse fill="black" stroke="black" cx="519.432" cy="-88.9096" rx="4.00002" ry="4.00002"/>
</g>
<!-- F1Team -->
<g id="node5" class="node"><title>F1Team</title>
<polyline fill="none" stroke="black" points="464.5,-143 573.5,-143 "/>
<path fill="none" stroke="black" d="M573.5,-143C579.5,-143 585.5,-149 585.5,-155"/>
<polyline fill="none" stroke="black" points="585.5,-155 585.5,-227 "/>
<path fill="none" stroke="black" d="M585.5,-227C585.5,-233 579.5,-239 573.5,-239"/>
<polyline fill="none" stroke="black" points="573.5,-239 464.5,-239 "/>
<path fill="none" stroke="black" d="M464.5,-239C458.5,-239 452.5,-233 452.5,-227"/>
<polyline fill="none" stroke="black" points="452.5,-227 452.5,-155 "/>
<path fill="none" stroke="black" d="M452.5,-155C452.5,-149 458.5,-143 464.5,-143"/>
<text text-anchor="middle" x="519" y="-222.4" font-family="Times,serif" font-size="14.00">F1Team</text>
<polyline fill="none" stroke="black" points="452.5,-215 585.5,-215 "/>
<text text-anchor="start" x="460.5" y="-198.4" font-family="Times,serif" font-size="14.00">name :string</text>
<text text-anchor="start" x="460.5" y="-182.4" font-family="Times,serif" font-size="14.00">country :string</text>
<text text-anchor="start" x="460.5" y="-166.4" font-family="Times,serif" font-size="14.00">created_at :datetime</text>
<text text-anchor="start" x="460.5" y="-150.4" font-family="Times,serif" font-size="14.00">updated_at :datetime</text>
</g>
<!-- League -->
<g id="node6" class="node"><title>League</title>
<polyline fill="none" stroke="black" points="539.5,-435 648.5,-435 "/>
<path fill="none" stroke="black" d="M648.5,-435C654.5,-435 660.5,-441 660.5,-447"/>
<polyline fill="none" stroke="black" points="660.5,-447 660.5,-503 "/>
<path fill="none" stroke="black" d="M660.5,-503C660.5,-509 654.5,-515 648.5,-515"/>
<polyline fill="none" stroke="black" points="648.5,-515 539.5,-515 "/>
<path fill="none" stroke="black" d="M539.5,-515C533.5,-515 527.5,-509 527.5,-503"/>
<polyline fill="none" stroke="black" points="527.5,-503 527.5,-447 "/>
<path fill="none" stroke="black" d="M527.5,-447C527.5,-441 533.5,-435 539.5,-435"/>
<text text-anchor="middle" x="594" y="-498.4" font-family="Times,serif" font-size="14.00">League</text>
<polyline fill="none" stroke="black" points="527.5,-491 660.5,-491 "/>
<text text-anchor="start" x="535.5" y="-474.4" font-family="Times,serif" font-size="14.00">name :string</text>
<text text-anchor="start" x="535.5" y="-458.4" font-family="Times,serif" font-size="14.00">created_at :datetime</text>
<text text-anchor="start" x="535.5" y="-442.4" font-family="Times,serif" font-size="14.00">updated_at :datetime</text>
</g>
<!-- Team -->
<g id="node12" class="node"><title>Team</title>
<polyline fill="none" stroke="black" points="539.5,-285 648.5,-285 "/>
<path fill="none" stroke="black" d="M648.5,-285C654.5,-285 660.5,-291 660.5,-297"/>
<polyline fill="none" stroke="black" points="660.5,-297 660.5,-369 "/>
<path fill="none" stroke="black" d="M660.5,-369C660.5,-375 654.5,-381 648.5,-381"/>
<polyline fill="none" stroke="black" points="648.5,-381 539.5,-381 "/>
<path fill="none" stroke="black" d="M539.5,-381C533.5,-381 527.5,-375 527.5,-369"/>
<polyline fill="none" stroke="black" points="527.5,-369 527.5,-297 "/>
<path fill="none" stroke="black" d="M527.5,-297C527.5,-291 533.5,-285 539.5,-285"/>
<text text-anchor="middle" x="594" y="-364.4" font-family="Times,serif" font-size="14.00">Team</text>
<polyline fill="none" stroke="black" points="527.5,-357 660.5,-357 "/>
<text text-anchor="start" x="535.5" y="-340.4" font-family="Times,serif" font-size="14.00">name :string</text>
<text text-anchor="start" x="535.5" y="-324.4" font-family="Times,serif" font-size="14.00">country :string</text>
<text text-anchor="start" x="535.5" y="-308.4" font-family="Times,serif" font-size="14.00">created_at :datetime</text>
<text text-anchor="start" x="535.5" y="-292.4" font-family="Times,serif" font-size="14.00">updated_at :datetime</text>
</g>
<!-- League&#45;&gt;Team -->
<g id="edge6" class="edge"><title>League&#45;&gt;Team</title>
<path fill="none" stroke="black" d="M594,-426.628C594,-415.247 594,-402.973 594,-391.198"/>
<ellipse fill="none" stroke="black" cx="594" cy="-430.63" rx="4" ry="4"/>
<polygon fill="black" stroke="black" points="594,-391.015 598.5,-381.015 594,-386.015 594,-381.015 594,-381.015 594,-381.015 594,-386.015 589.5,-381.015 594,-391.015 594,-391.015"/>
</g>
<!-- PitCrew -->
<g id="node7" class="node"><title>PitCrew</title>
<polyline fill="none" stroke="black" points="615.5,-159 724.5,-159 "/>
<path fill="none" stroke="black" d="M724.5,-159C730.5,-159 736.5,-165 736.5,-171"/>
<polyline fill="none" stroke="black" points="736.5,-171 736.5,-211 "/>
<path fill="none" stroke="black" d="M736.5,-211C736.5,-217 730.5,-223 724.5,-223"/>
<polyline fill="none" stroke="black" points="724.5,-223 615.5,-223 "/>
<path fill="none" stroke="black" d="M615.5,-223C609.5,-223 603.5,-217 603.5,-211"/>
<polyline fill="none" stroke="black" points="603.5,-211 603.5,-171 "/>
<path fill="none" stroke="black" d="M603.5,-171C603.5,-165 609.5,-159 615.5,-159"/>
<text text-anchor="middle" x="670" y="-206.4" font-family="Times,serif" font-size="14.00">PitCrew</text>
<polyline fill="none" stroke="black" points="603.5,-199 736.5,-199 "/>
<text text-anchor="start" x="611.5" y="-182.4" font-family="Times,serif" font-size="14.00">created_at :datetime</text>
<text text-anchor="start" x="611.5" y="-166.4" font-family="Times,serif" font-size="14.00">updated_at :datetime</text>
</g>
<!-- RaceMeeting -->
<g id="node8" class="node"><title>RaceMeeting</title>
<polyline fill="none" stroke="black" points="916.5,-285 1025.5,-285 "/>
<path fill="none" stroke="black" d="M1025.5,-285C1031.5,-285 1037.5,-291 1037.5,-297"/>
<polyline fill="none" stroke="black" points="1037.5,-297 1037.5,-369 "/>
<path fill="none" stroke="black" d="M1037.5,-369C1037.5,-375 1031.5,-381 1025.5,-381"/>
<polyline fill="none" stroke="black" points="1025.5,-381 916.5,-381 "/>
<path fill="none" stroke="black" d="M916.5,-381C910.5,-381 904.5,-375 904.5,-369"/>
<polyline fill="none" stroke="black" points="904.5,-369 904.5,-297 "/>
<path fill="none" stroke="black" d="M904.5,-297C904.5,-291 910.5,-285 916.5,-285"/>
<text text-anchor="middle" x="971" y="-364.4" font-family="Times,serif" font-size="14.00">RaceMeeting</text>
<polyline fill="none" stroke="black" points="904.5,-357 1037.5,-357 "/>
<text text-anchor="start" x="912.5" y="-340.4" font-family="Times,serif" font-size="14.00">name :string</text>
<text text-anchor="start" x="912.5" y="-324.4" font-family="Times,serif" font-size="14.00">location :string</text>
<text text-anchor="start" x="912.5" y="-308.4" font-family="Times,serif" font-size="14.00">created_at :datetime</text>
<text text-anchor="start" x="912.5" y="-292.4" font-family="Times,serif" font-size="14.00">updated_at :datetime</text>
</g>
<!-- RaceSession -->
<g id="node9" class="node"><title>RaceSession</title>
<polyline fill="none" stroke="black" points="1068.5,-151 1177.5,-151 "/>
<path fill="none" stroke="black" d="M1177.5,-151C1183.5,-151 1189.5,-157 1189.5,-163"/>
<polyline fill="none" stroke="black" points="1189.5,-163 1189.5,-219 "/>
<path fill="none" stroke="black" d="M1189.5,-219C1189.5,-225 1183.5,-231 1177.5,-231"/>
<polyline fill="none" stroke="black" points="1177.5,-231 1068.5,-231 "/>
<path fill="none" stroke="black" d="M1068.5,-231C1062.5,-231 1056.5,-225 1056.5,-219"/>
<polyline fill="none" stroke="black" points="1056.5,-219 1056.5,-163 "/>
<path fill="none" stroke="black" d="M1056.5,-163C1056.5,-157 1062.5,-151 1068.5,-151"/>
<text text-anchor="middle" x="1123" y="-214.4" font-family="Times,serif" font-size="14.00">RaceSession</text>
<polyline fill="none" stroke="black" points="1056.5,-207 1189.5,-207 "/>
<text text-anchor="start" x="1064.5" y="-190.4" font-family="Times,serif" font-size="14.00">qualifying :boolean</text>
<text text-anchor="start" x="1064.5" y="-174.4" font-family="Times,serif" font-size="14.00">created_at :datetime</text>
<text text-anchor="start" x="1064.5" y="-158.4" font-family="Times,serif" font-size="14.00">updated_at :datetime</text>
</g>
<!-- RaceMeeting&#45;&gt;RaceSession -->
<g id="edge8" class="edge"><title>RaceMeeting&#45;&gt;RaceSession</title>
<path fill="none" stroke="black" d="M1028.34,-279.188C1042.93,-265.747 1058.5,-251.405 1072.71,-238.316"/>
<ellipse fill="none" stroke="black" cx="1024.98" cy="-282.283" rx="4.00002" ry="4.00002"/>
<polygon fill="black" stroke="black" points="1073.1,-237.962 1083.5,-234.497 1076.78,-234.574 1080.45,-231.187 1080.45,-231.187 1080.45,-231.187 1076.78,-234.574 1077.41,-227.877 1073.1,-237.962 1073.1,-237.962"/>
</g>
<!-- Season -->
<g id="node10" class="node"><title>Season</title>
<polyline fill="none" stroke="black" points="803.5,-419 912.5,-419 "/>
<path fill="none" stroke="black" d="M912.5,-419C918.5,-419 924.5,-425 924.5,-431"/>
<polyline fill="none" stroke="black" points="924.5,-431 924.5,-519 "/>
<path fill="none" stroke="black" d="M924.5,-519C924.5,-525 918.5,-531 912.5,-531"/>
<polyline fill="none" stroke="black" points="912.5,-531 803.5,-531 "/>
<path fill="none" stroke="black" d="M803.5,-531C797.5,-531 791.5,-525 791.5,-519"/>
<polyline fill="none" stroke="black" points="791.5,-519 791.5,-431 "/>
<path fill="none" stroke="black" d="M791.5,-431C791.5,-425 797.5,-419 803.5,-419"/>
<text text-anchor="middle" x="858" y="-514.4" font-family="Times,serif" font-size="14.00">Season</text>
<polyline fill="none" stroke="black" points="791.5,-507 924.5,-507 "/>
<text text-anchor="start" x="799.5" y="-490.4" font-family="Times,serif" font-size="14.00">name :string</text>
<text text-anchor="start" x="799.5" y="-474.4" font-family="Times,serif" font-size="14.00">start_date :date</text>
<text text-anchor="start" x="799.5" y="-458.4" font-family="Times,serif" font-size="14.00">end_date :date</text>
<text text-anchor="start" x="799.5" y="-442.4" font-family="Times,serif" font-size="14.00">created_at :datetime</text>
<text text-anchor="start" x="799.5" y="-426.4" font-family="Times,serif" font-size="14.00">updated_at :datetime</text>
</g>
<!-- Season&#45;&gt;RaceMeeting -->
<g id="edge10" class="edge"><title>Season&#45;&gt;RaceMeeting</title>
<path fill="none" stroke="black" d="M907.853,-412.235C914.015,-404.601 920.284,-396.834 926.361,-389.305"/>
<ellipse fill="none" stroke="black" cx="905.173" cy="-415.556" rx="4.00002" ry="4.00002"/>
<polygon fill="black" stroke="black" points="926.586,-389.027 936.368,-384.071 929.726,-385.136 932.866,-381.245 932.866,-381.245 932.866,-381.245 929.726,-385.136 929.365,-378.419 926.586,-389.027 926.586,-389.027"/>
</g>
<!-- Season&#45;&gt;Team -->
<g id="edge12" class="edge"><title>Season&#45;&gt;Team</title>
<path fill="none" stroke="black" d="M784.241,-434.885C748.482,-415.922 705.59,-393.176 669.592,-374.087"/>
<ellipse fill="none" stroke="black" cx="787.848" cy="-436.798" rx="4.00002" ry="4.00002"/>
<polygon fill="black" stroke="black" points="669.432,-374.002 662.705,-365.341 665.014,-371.659 660.597,-369.317 660.597,-369.317 660.597,-369.317 665.014,-371.659 658.489,-373.292 669.432,-374.002 669.432,-374.002"/>
</g>
<!-- Team&#45;&gt;Chassis -->
<g id="edge14" class="edge"><title>Team&#45;&gt;Chassis</title>
<path fill="none" stroke="black" d="M519.319,-328.535C426.952,-321.954 266.553,-302.921 141,-248 133.407,-244.679 125.863,-240.458 118.649,-235.828"/>
<ellipse fill="none" stroke="black" cx="523.503" cy="-328.823" rx="4" ry="4"/>
<ellipse fill="black" stroke="black" cx="114.881" cy="-233.306" rx="4.00002" ry="4.00002"/>
</g>
<!-- Team&#45;&gt;Driver -->
<g id="edge16" class="edge"><title>Team&#45;&gt;Driver</title>
<path fill="none" stroke="black" d="M519.339,-319.243C458.799,-307.119 372.044,-285.659 292.82,-248.044"/>
<ellipse fill="none" stroke="black" cx="523.323" cy="-320.03" rx="4.00001" ry="4.00001"/>
<polygon fill="black" stroke="black" points="292.695,-247.983 285.658,-239.573 288.195,-245.803 283.696,-243.622 283.696,-243.622 283.696,-243.622 288.195,-245.803 281.733,-247.672 292.695,-247.983 292.695,-247.983"/>
</g>
<!-- Team&#45;&gt;Engine -->
<g id="edge18" class="edge"><title>Team&#45;&gt;Engine</title>
<path fill="none" stroke="black" d="M520.174,-293.503C495.242,-279.829 467.524,-263.876 443,-248 433.56,-241.889 423.743,-234.99 414.443,-228.175"/>
<ellipse fill="none" stroke="black" cx="523.959" cy="-295.568" rx="4.00002" ry="4.00002"/>
<ellipse fill="black" stroke="black" cx="410.99" cy="-225.619" rx="4.00002" ry="4.00002"/>
</g>
<!-- Team&#45;&gt;F1Team -->
<g id="edge4" class="edge"><title>Team&#45;&gt;F1Team</title>
<path fill="none" stroke="black" d="M568.817,-284.993C560.902,-270.217 552.163,-253.905 544.244,-239.122"/>
</g>
<!-- Team&#45;&gt;PitCrew -->
<g id="edge20" class="edge"><title>Team&#45;&gt;PitCrew</title>
<path fill="none" stroke="black" d="M623.458,-277.736C631.99,-262.018 641.129,-245.183 649.03,-230.629"/>
<ellipse fill="none" stroke="black" cx="621.427" cy="-281.477" rx="4.00002" ry="4.00002"/>
<ellipse fill="black" stroke="black" cx="651.13" cy="-226.76" rx="4.00002" ry="4.00002"/>
</g>
<!-- Tire -->
<g id="node13" class="node"><title>Tire</title>
<polyline fill="none" stroke="black" points="766.5,-151 875.5,-151 "/>
<path fill="none" stroke="black" d="M875.5,-151C881.5,-151 887.5,-157 887.5,-163"/>
<polyline fill="none" stroke="black" points="887.5,-163 887.5,-219 "/>
<path fill="none" stroke="black" d="M887.5,-219C887.5,-225 881.5,-231 875.5,-231"/>
<polyline fill="none" stroke="black" points="875.5,-231 766.5,-231 "/>
<path fill="none" stroke="black" d="M766.5,-231C760.5,-231 754.5,-225 754.5,-219"/>
<polyline fill="none" stroke="black" points="754.5,-219 754.5,-163 "/>
<path fill="none" stroke="black" d="M754.5,-163C754.5,-157 760.5,-151 766.5,-151"/>
<text text-anchor="middle" x="821" y="-214.4" font-family="Times,serif" font-size="14.00">Tire</text>
<polyline fill="none" stroke="black" points="754.5,-207 887.5,-207 "/>
<text text-anchor="start" x="762.5" y="-190.4" font-family="Times,serif" font-size="14.00">name :string</text>
<text text-anchor="start" x="762.5" y="-174.4" font-family="Times,serif" font-size="14.00">created_at :datetime</text>
<text text-anchor="start" x="762.5" y="-158.4" font-family="Times,serif" font-size="14.00">updated_at :datetime</text>
</g>
<!-- Team&#45;&gt;Tire -->
<g id="edge22" class="edge"><title>Team&#45;&gt;Tire</title>
<path fill="none" stroke="black" d="M668.117,-293.222C692.955,-279.584 720.54,-263.724 745,-248 750.973,-244.16 757.102,-240.016 763.162,-235.78"/>
<ellipse fill="none" stroke="black" cx="664.358" cy="-295.276" rx="4.00002" ry="4.00002"/>
<ellipse fill="black" stroke="black" cx="766.434" cy="-233.467" rx="4.00002" ry="4.00002"/>
</g>
<!-- UserTeam -->
<g id="node14" class="node"><title>UserTeam</title>
<polyline fill="none" stroke="black" points="917.5,-143 1026.5,-143 "/>
<path fill="none" stroke="black" d="M1026.5,-143C1032.5,-143 1038.5,-149 1038.5,-155"/>
<polyline fill="none" stroke="black" points="1038.5,-155 1038.5,-227 "/>
<path fill="none" stroke="black" d="M1038.5,-227C1038.5,-233 1032.5,-239 1026.5,-239"/>
<polyline fill="none" stroke="black" points="1026.5,-239 917.5,-239 "/>
<path fill="none" stroke="black" d="M917.5,-239C911.5,-239 905.5,-233 905.5,-227"/>
<polyline fill="none" stroke="black" points="905.5,-227 905.5,-155 "/>
<path fill="none" stroke="black" d="M905.5,-155C905.5,-149 911.5,-143 917.5,-143"/>
<text text-anchor="middle" x="972" y="-222.4" font-family="Times,serif" font-size="14.00">UserTeam</text>
<polyline fill="none" stroke="black" points="905.5,-215 1038.5,-215 "/>
<text text-anchor="start" x="913.5" y="-198.4" font-family="Times,serif" font-size="14.00">name :string</text>
<text text-anchor="start" x="913.5" y="-182.4" font-family="Times,serif" font-size="14.00">country :string</text>
<text text-anchor="start" x="913.5" y="-166.4" font-family="Times,serif" font-size="14.00">created_at :datetime</text>
<text text-anchor="start" x="913.5" y="-150.4" font-family="Times,serif" font-size="14.00">updated_at :datetime</text>
</g>
<!-- Team&#45;&gt;UserTeam -->
<g id="edge26" class="edge"><title>Team&#45;&gt;UserTeam</title>
<path fill="none" stroke="black" d="M660.699,-320.694C723.613,-308.378 819.427,-285.287 896,-248 901.305,-245.417 906.62,-242.453 911.839,-239.266"/>
</g>
<!-- Tire&#45;&gt;Supplier -->
<g id="edge24" class="edge"><title>Tire&#45;&gt;Supplier</title>
<path fill="none" stroke="black" d="M763.162,-146.22C757.102,-141.984 750.973,-137.84 745,-134 721.903,-119.152 696.019,-104.183 672.293,-91.0779"/>
<ellipse fill="none" stroke="black" cx="766.434" cy="-148.533" rx="4.00002" ry="4.00002"/>
<ellipse fill="black" stroke="black" cx="668.511" cy="-88.9992" rx="4.00002" ry="4.00002"/>
</g>
</g>
</svg>
