<?xml version="1.0" encoding="UTF-8" standalone="no"?>
<!DOCTYPE svg PUBLIC "-//W3C//DTD SVG 1.1//EN"
 "http://www.w3.org/Graphics/SVG/1.1/DTD/svg11.dtd">
<!-- Generated by graphviz version 2.28.0 (20111111.1505)
 -->
<!-- Title: models_diagram Pages: 1 -->
<svg width="1197pt" height="406pt"
 viewBox="0.00 0.00 1197.00 406.00" xmlns="http://www.w3.org/2000/svg" xmlns:xlink="http://www.w3.org/1999/xlink">
<g id="graph1" class="graph" transform="scale(1 1) rotate(0) translate(4 402)">
<title>models_diagram</title>
<polygon fill="white" stroke="white" points="-4,5 -4,-402 1194,-402 1194,5 -4,5"/>
<!-- _diagram_info -->
<g id="node1" class="node"><title>_diagram_info</title>
<text text-anchor="start" x="236" y="-366.8" font-family="Times,serif" font-size="13.00">Models diagram</text>
<text text-anchor="start" x="236" y="-351.8" font-family="Times,serif" font-size="13.00">Date: Dec 07 2011 &#45; 14:32</text>
<text text-anchor="start" x="236" y="-336.8" font-family="Times,serif" font-size="13.00">Migration version: 20111207180742</text>
<text text-anchor="start" x="236" y="-321.8" font-family="Times,serif" font-size="13.00">Generated by RailRoady 1.0.2</text>
<text text-anchor="start" x="236" y="-306.8" font-family="Times,serif" font-size="13.00">http://railroady.prestonlee.com</text>
</g>
<!-- Chassis -->
<g id="node2" class="node"><title>Chassis</title>
<polyline fill="none" stroke="black" points="11.5,-151 120.5,-151 "/>
<path fill="none" stroke="black" d="M120.5,-151C126.5,-151 132.5,-157 132.5,-163"/>
<polyline fill="none" stroke="black" points="132.5,-163 132.5,-219 "/>
<path fill="none" stroke="black" d="M132.5,-219C132.5,-225 126.5,-231 120.5,-231"/>
<polyline fill="none" stroke="black" points="120.5,-231 11.5,-231 "/>
<path fill="none" stroke="black" d="M11.5,-231C5.5,-231 -0.5,-225 -0.5,-219"/>
<polyline fill="none" stroke="black" points="-0.5,-219 -0.5,-163 "/>
<path fill="none" stroke="black" d="M-0.5,-163C-0.5,-157 5.5,-151 11.5,-151"/>
<text text-anchor="middle" x="66" y="-214.4" font-family="Times,serif" font-size="14.00">Chassis</text>
<polyline fill="none" stroke="black" points="-0.5,-207 132.5,-207 "/>
<text text-anchor="start" x="7.5" y="-190.4" font-family="Times,serif" font-size="14.00">name :string</text>
<text text-anchor="start" x="7.5" y="-174.4" font-family="Times,serif" font-size="14.00">created_at :datetime</text>
<text text-anchor="start" x="7.5" y="-158.4" font-family="Times,serif" font-size="14.00">updated_at :datetime</text>
</g>
<!-- Driver -->
<g id="node3" class="node"><title>Driver</title>
<polyline fill="none" stroke="black" points="162.5,-135 271.5,-135 "/>
<path fill="none" stroke="black" d="M271.5,-135C277.5,-135 283.5,-141 283.5,-147"/>
<polyline fill="none" stroke="black" points="283.5,-147 283.5,-235 "/>
<path fill="none" stroke="black" d="M283.5,-235C283.5,-241 277.5,-247 271.5,-247"/>
<polyline fill="none" stroke="black" points="271.5,-247 162.5,-247 "/>
<path fill="none" stroke="black" d="M162.5,-247C156.5,-247 150.5,-241 150.5,-235"/>
<polyline fill="none" stroke="black" points="150.5,-235 150.5,-147 "/>
<path fill="none" stroke="black" d="M150.5,-147C150.5,-141 156.5,-135 162.5,-135"/>
<text text-anchor="middle" x="217" y="-230.4" font-family="Times,serif" font-size="14.00">Driver</text>
<polyline fill="none" stroke="black" points="150.5,-223 283.5,-223 "/>
<text text-anchor="start" x="158.5" y="-206.4" font-family="Times,serif" font-size="14.00">first_name :string</text>
<text text-anchor="start" x="158.5" y="-190.4" font-family="Times,serif" font-size="14.00">last_name :string</text>
<text text-anchor="start" x="158.5" y="-174.4" font-family="Times,serif" font-size="14.00">country :string</text>
<text text-anchor="start" x="158.5" y="-158.4" font-family="Times,serif" font-size="14.00">created_at :datetime</text>
<text text-anchor="start" x="158.5" y="-142.4" font-family="Times,serif" font-size="14.00">updated_at :datetime</text>
</g>
<!-- Engine -->
<g id="node4" class="node"><title>Engine</title>
<polyline fill="none" stroke="black" points="313.5,-159 422.5,-159 "/>
<path fill="none" stroke="black" d="M422.5,-159C428.5,-159 434.5,-165 434.5,-171"/>
<polyline fill="none" stroke="black" points="434.5,-171 434.5,-211 "/>
<path fill="none" stroke="black" d="M434.5,-211C434.5,-217 428.5,-223 422.5,-223"/>
<polyline fill="none" stroke="black" points="422.5,-223 313.5,-223 "/>
<path fill="none" stroke="black" d="M313.5,-223C307.5,-223 301.5,-217 301.5,-211"/>
<polyline fill="none" stroke="black" points="301.5,-211 301.5,-171 "/>
<path fill="none" stroke="black" d="M301.5,-171C301.5,-165 307.5,-159 313.5,-159"/>
<text text-anchor="middle" x="368" y="-206.4" font-family="Times,serif" font-size="14.00">Engine</text>
<polyline fill="none" stroke="black" points="301.5,-199 434.5,-199 "/>
<text text-anchor="start" x="309.5" y="-182.4" font-family="Times,serif" font-size="14.00">created_at :datetime</text>
<text text-anchor="start" x="309.5" y="-166.4" font-family="Times,serif" font-size="14.00">updated_at :datetime</text>
</g>
<!-- Supplier -->
<g id="node10" class="node"><title>Supplier</title>
<polyline fill="none" stroke="black" points="536,-1 654,-1 "/>
<path fill="none" stroke="black" d="M654,-1C660,-1 666,-7 666,-13"/>
<polyline fill="none" stroke="black" points="666,-13 666,-85 "/>
<path fill="none" stroke="black" d="M666,-85C666,-91 660,-97 654,-97"/>
<polyline fill="none" stroke="black" points="654,-97 536,-97 "/>
<path fill="none" stroke="black" d="M536,-97C530,-97 524,-91 524,-85"/>
<polyline fill="none" stroke="black" points="524,-85 524,-13 "/>
<path fill="none" stroke="black" d="M524,-13C524,-7 530,-1 536,-1"/>
<text text-anchor="middle" x="595" y="-80.4" font-family="Times,serif" font-size="14.00">Supplier</text>
<polyline fill="none" stroke="black" points="524,-73 666,-73 "/>
<text text-anchor="start" x="532" y="-56.4" font-family="Times,serif" font-size="14.00">name :string</text>
<text text-anchor="start" x="532" y="-40.4" font-family="Times,serif" font-size="14.00">suppliable_type :string</text>
<text text-anchor="start" x="532" y="-24.4" font-family="Times,serif" font-size="14.00">created_at :datetime</text>
<text text-anchor="start" x="532" y="-8.4" font-family="Times,serif" font-size="14.00">updated_at :datetime</text>
</g>
<!-- Engine&#45;&gt;Supplier -->
<g id="edge2" class="edge"><title>Engine&#45;&gt;Supplier</title>
<path fill="none" stroke="black" d="M414.429,-153.804C423.73,-146.991 433.551,-140.098 443,-134 466.403,-118.897 492.709,-103.755 516.775,-90.5697"/>
<ellipse fill="none" stroke="black" cx="410.976" cy="-156.359" rx="4.00002" ry="4.00002"/>
<ellipse fill="black" stroke="black" cx="520.32" cy="-88.6382" rx="4.00002" ry="4.00002"/>
</g>
<!-- F1Team -->
<g id="node5" class="node"><title>F1Team</title>
<polyline fill="none" stroke="black" points="464.5,-143 573.5,-143 "/>
<path fill="none" stroke="black" d="M573.5,-143C579.5,-143 585.5,-149 585.5,-155"/>
<polyline fill="none" stroke="black" points="585.5,-155 585.5,-227 "/>
<path fill="none" stroke="black" d="M585.5,-227C585.5,-233 579.5,-239 573.5,-239"/>
<polyline fill="none" stroke="black" points="573.5,-239 464.5,-239 "/>
<path fill="none" stroke="black" d="M464.5,-239C458.5,-239 452.5,-233 452.5,-227"/>
<polyline fill="none" stroke="black" points="452.5,-227 452.5,-155 "/>
<path fill="none" stroke="black" d="M452.5,-155C452.5,-149 458.5,-143 464.5,-143"/>
<text text-anchor="middle" x="519" y="-222.4" font-family="Times,serif" font-size="14.00">F1Team</text>
<polyline fill="none" stroke="black" points="452.5,-215 585.5,-215 "/>
<text text-anchor="start" x="460.5" y="-198.4" font-family="Times,serif" font-size="14.00">name :string</text>
<text text-anchor="start" x="460.5" y="-182.4" font-family="Times,serif" font-size="14.00">country :string</text>
<text text-anchor="start" x="460.5" y="-166.4" font-family="Times,serif" font-size="14.00">created_at :datetime</text>
<text text-anchor="start" x="460.5" y="-150.4" font-family="Times,serif" font-size="14.00">updated_at :datetime</text>
</g>
<!-- PitCrew -->
<g id="node6" class="node"><title>PitCrew</title>
<polyline fill="none" stroke="black" points="615.5,-159 724.5,-159 "/>
<path fill="none" stroke="black" d="M724.5,-159C730.5,-159 736.5,-165 736.5,-171"/>
<polyline fill="none" stroke="black" points="736.5,-171 736.5,-211 "/>
<path fill="none" stroke="black" d="M736.5,-211C736.5,-217 730.5,-223 724.5,-223"/>
<polyline fill="none" stroke="black" points="724.5,-223 615.5,-223 "/>
<path fill="none" stroke="black" d="M615.5,-223C609.5,-223 603.5,-217 603.5,-211"/>
<polyline fill="none" stroke="black" points="603.5,-211 603.5,-171 "/>
<path fill="none" stroke="black" d="M603.5,-171C603.5,-165 609.5,-159 615.5,-159"/>
<text text-anchor="middle" x="670" y="-206.4" font-family="Times,serif" font-size="14.00">PitCrew</text>
<polyline fill="none" stroke="black" points="603.5,-199 736.5,-199 "/>
<text text-anchor="start" x="611.5" y="-182.4" font-family="Times,serif" font-size="14.00">created_at :datetime</text>
<text text-anchor="start" x="611.5" y="-166.4" font-family="Times,serif" font-size="14.00">updated_at :datetime</text>
</g>
<!-- RaceMeeting -->
<g id="node7" class="node"><title>RaceMeeting</title>
<polyline fill="none" stroke="black" points="1068.5,-143 1177.5,-143 "/>
<path fill="none" stroke="black" d="M1177.5,-143C1183.5,-143 1189.5,-149 1189.5,-155"/>
<polyline fill="none" stroke="black" points="1189.5,-155 1189.5,-227 "/>
<path fill="none" stroke="black" d="M1189.5,-227C1189.5,-233 1183.5,-239 1177.5,-239"/>
<polyline fill="none" stroke="black" points="1177.5,-239 1068.5,-239 "/>
<path fill="none" stroke="black" d="M1068.5,-239C1062.5,-239 1056.5,-233 1056.5,-227"/>
<polyline fill="none" stroke="black" points="1056.5,-227 1056.5,-155 "/>
<path fill="none" stroke="black" d="M1056.5,-155C1056.5,-149 1062.5,-143 1068.5,-143"/>
<text text-anchor="middle" x="1123" y="-222.4" font-family="Times,serif" font-size="14.00">RaceMeeting</text>
<polyline fill="none" stroke="black" points="1056.5,-215 1189.5,-215 "/>
<text text-anchor="start" x="1064.5" y="-198.4" font-family="Times,serif" font-size="14.00">name :string</text>
<text text-anchor="start" x="1064.5" y="-182.4" font-family="Times,serif" font-size="14.00">location :string</text>
<text text-anchor="start" x="1064.5" y="-166.4" font-family="Times,serif" font-size="14.00">created_at :datetime</text>
<text text-anchor="start" x="1064.5" y="-150.4" font-family="Times,serif" font-size="14.00">updated_at :datetime</text>
</g>
<!-- RaceSession -->
<g id="node8" class="node"><title>RaceSession</title>
<polyline fill="none" stroke="black" points="1068.5,-9 1177.5,-9 "/>
<path fill="none" stroke="black" d="M1177.5,-9C1183.5,-9 1189.5,-15 1189.5,-21"/>
<polyline fill="none" stroke="black" points="1189.5,-21 1189.5,-77 "/>
<path fill="none" stroke="black" d="M1189.5,-77C1189.5,-83 1183.5,-89 1177.5,-89"/>
<polyline fill="none" stroke="black" points="1177.5,-89 1068.5,-89 "/>
<path fill="none" stroke="black" d="M1068.5,-89C1062.5,-89 1056.5,-83 1056.5,-77"/>
<polyline fill="none" stroke="black" points="1056.5,-77 1056.5,-21 "/>
<path fill="none" stroke="black" d="M1056.5,-21C1056.5,-15 1062.5,-9 1068.5,-9"/>
<text text-anchor="middle" x="1123" y="-72.4" font-family="Times,serif" font-size="14.00">RaceSession</text>
<polyline fill="none" stroke="black" points="1056.5,-65 1189.5,-65 "/>
<text text-anchor="start" x="1064.5" y="-48.4" font-family="Times,serif" font-size="14.00">qualifying :boolean</text>
<text text-anchor="start" x="1064.5" y="-32.4" font-family="Times,serif" font-size="14.00">created_at :datetime</text>
<text text-anchor="start" x="1064.5" y="-16.4" font-family="Times,serif" font-size="14.00">updated_at :datetime</text>
</g>
<!-- RaceMeeting&#45;&gt;RaceSession -->
<g id="edge6" class="edge"><title>RaceMeeting&#45;&gt;RaceSession</title>
<path fill="none" stroke="black" d="M1123,-134.663C1123,-123.019 1123,-110.809 1123,-99.3998"/>
<ellipse fill="none" stroke="black" cx="1123" cy="-138.993" rx="4" ry="4"/>
<polygon fill="black" stroke="black" points="1123,-99.1869 1127.5,-89.1868 1123,-94.1869 1123,-89.1869 1123,-89.1869 1123,-89.1869 1123,-94.1869 1118.5,-89.1869 1123,-99.1869 1123,-99.1869"/>
</g>
<!-- Season -->
<g id="node9" class="node"><title>Season</title>
<polyline fill="none" stroke="black" points="1068.5,-285 1177.5,-285 "/>
<path fill="none" stroke="black" d="M1177.5,-285C1183.5,-285 1189.5,-291 1189.5,-297"/>
<polyline fill="none" stroke="black" points="1189.5,-297 1189.5,-385 "/>
<path fill="none" stroke="black" d="M1189.5,-385C1189.5,-391 1183.5,-397 1177.5,-397"/>
<polyline fill="none" stroke="black" points="1177.5,-397 1068.5,-397 "/>
<path fill="none" stroke="black" d="M1068.5,-397C1062.5,-397 1056.5,-391 1056.5,-385"/>
<polyline fill="none" stroke="black" points="1056.5,-385 1056.5,-297 "/>
<path fill="none" stroke="black" d="M1056.5,-297C1056.5,-291 1062.5,-285 1068.5,-285"/>
<text text-anchor="middle" x="1123" y="-380.4" font-family="Times,serif" font-size="14.00">Season</text>
<polyline fill="none" stroke="black" points="1056.5,-373 1189.5,-373 "/>
<text text-anchor="start" x="1064.5" y="-356.4" font-family="Times,serif" font-size="14.00">name :string</text>
<text text-anchor="start" x="1064.5" y="-340.4" font-family="Times,serif" font-size="14.00">start_date :date</text>
<text text-anchor="start" x="1064.5" y="-324.4" font-family="Times,serif" font-size="14.00">end_date :date</text>
<text text-anchor="start" x="1064.5" y="-308.4" font-family="Times,serif" font-size="14.00">created_at :datetime</text>
<text text-anchor="start" x="1064.5" y="-292.4" font-family="Times,serif" font-size="14.00">updated_at :datetime</text>
</g>
<!-- Season&#45;&gt;RaceMeeting -->
<g id="edge8" class="edge"><title>Season&#45;&gt;RaceMeeting</title>
<path fill="none" stroke="black" d="M1123,-276.736C1123,-267.734 1123,-258.515 1123,-249.629"/>
<ellipse fill="none" stroke="black" cx="1123" cy="-280.89" rx="4" ry="4"/>
<polygon fill="black" stroke="black" points="1123,-249.381 1127.5,-239.381 1123,-244.381 1123,-239.381 1123,-239.381 1123,-239.381 1123,-244.381 1118.5,-239.382 1123,-249.381 1123,-249.381"/>
</g>
<!-- Team -->
<g id="node11" class="node"><title>Team</title>
<polyline fill="none" stroke="black" points="464.5,-293 573.5,-293 "/>
<path fill="none" stroke="black" d="M573.5,-293C579.5,-293 585.5,-299 585.5,-305"/>
<polyline fill="none" stroke="black" points="585.5,-305 585.5,-377 "/>
<path fill="none" stroke="black" d="M585.5,-377C585.5,-383 579.5,-389 573.5,-389"/>
<polyline fill="none" stroke="black" points="573.5,-389 464.5,-389 "/>
<path fill="none" stroke="black" d="M464.5,-389C458.5,-389 452.5,-383 452.5,-377"/>
<polyline fill="none" stroke="black" points="452.5,-377 452.5,-305 "/>
<path fill="none" stroke="black" d="M452.5,-305C452.5,-299 458.5,-293 464.5,-293"/>
<text text-anchor="middle" x="519" y="-372.4" font-family="Times,serif" font-size="14.00">Team</text>
<polyline fill="none" stroke="black" points="452.5,-365 585.5,-365 "/>
<text text-anchor="start" x="460.5" y="-348.4" font-family="Times,serif" font-size="14.00">name :string</text>
<text text-anchor="start" x="460.5" y="-332.4" font-family="Times,serif" font-size="14.00">country :string</text>
<text text-anchor="start" x="460.5" y="-316.4" font-family="Times,serif" font-size="14.00">created_at :datetime</text>
<text text-anchor="start" x="460.5" y="-300.4" font-family="Times,serif" font-size="14.00">updated_at :datetime</text>
</g>
<!-- Team&#45;&gt;Chassis -->
<g id="edge10" class="edge"><title>Team&#45;&gt;Chassis</title>
<path fill="none" stroke="black" d="M453.778,-288.893C450.221,-287.081 446.619,-285.432 443,-284 317.312,-234.259 266.53,-298.139 141,-248 132.912,-244.77 124.924,-240.437 117.348,-235.606"/>
<ellipse fill="none" stroke="black" cx="457.492" cy="-290.915" rx="4.00002" ry="4.00002"/>
<ellipse fill="black" stroke="black" cx="113.842" cy="-233.267" rx="4.00002" ry="4.00002"/>
</g>
<!-- Team&#45;&gt;Driver -->
<g id="edge12" class="edge"><title>Team&#45;&gt;Driver</title>
<path fill="none" stroke="black" d="M452.26,-288.686C449.187,-287.009 446.094,-285.436 443,-284 383.231,-256.26 356.892,-275.344 292.916,-247.941"/>
<ellipse fill="none" stroke="black" cx="455.912" cy="-290.784" rx="4.00002" ry="4.00002"/>
<polygon fill="black" stroke="black" points="292.748,-247.865 285.481,-239.653 288.19,-245.81 283.632,-243.756 283.632,-243.756 283.632,-243.756 288.19,-245.81 281.782,-247.858 292.748,-247.865 292.748,-247.865"/>
</g>
<!-- Team&#45;&gt;Engine -->
<g id="edge14" class="edge"><title>Team&#45;&gt;Engine</title>
<path fill="none" stroke="black" d="M465.041,-287.113C445.487,-267.948 423.829,-246.72 405.944,-229.19"/>
<ellipse fill="none" stroke="black" cx="467.951" cy="-289.965" rx="4.00002" ry="4.00002"/>
<ellipse fill="black" stroke="black" cx="402.889" cy="-226.195" rx="4.00002" ry="4.00002"/>
</g>
<!-- Team&#45;&gt;F1Team -->
<g id="edge4" class="edge"><title>Team&#45;&gt;F1Team</title>
<path fill="none" stroke="black" d="M519,-292.765C519,-275.592 519,-256.196 519,-239.04"/>
</g>
<!-- Team&#45;&gt;PitCrew -->
<g id="edge16" class="edge"><title>Team&#45;&gt;PitCrew</title>
<path fill="none" stroke="black" d="M572.959,-287.113C592.513,-267.948 614.171,-246.72 632.056,-229.19"/>
<ellipse fill="none" stroke="black" cx="570.049" cy="-289.965" rx="4.00002" ry="4.00002"/>
<ellipse fill="black" stroke="black" cx="635.111" cy="-226.195" rx="4.00002" ry="4.00002"/>
</g>
<!-- Tire -->
<g id="node12" class="node"><title>Tire</title>
<polyline fill="none" stroke="black" points="766.5,-151 875.5,-151 "/>
<path fill="none" stroke="black" d="M875.5,-151C881.5,-151 887.5,-157 887.5,-163"/>
<polyline fill="none" stroke="black" points="887.5,-163 887.5,-219 "/>
<path fill="none" stroke="black" d="M887.5,-219C887.5,-225 881.5,-231 875.5,-231"/>
<polyline fill="none" stroke="black" points="875.5,-231 766.5,-231 "/>
<path fill="none" stroke="black" d="M766.5,-231C760.5,-231 754.5,-225 754.5,-219"/>
<polyline fill="none" stroke="black" points="754.5,-219 754.5,-163 "/>
<path fill="none" stroke="black" d="M754.5,-163C754.5,-157 760.5,-151 766.5,-151"/>
<text text-anchor="middle" x="821" y="-214.4" font-family="Times,serif" font-size="14.00">Tire</text>
<polyline fill="none" stroke="black" points="754.5,-207 887.5,-207 "/>
<text text-anchor="start" x="762.5" y="-190.4" font-family="Times,serif" font-size="14.00">name :string</text>
<text text-anchor="start" x="762.5" y="-174.4" font-family="Times,serif" font-size="14.00">created_at :datetime</text>
<text text-anchor="start" x="762.5" y="-158.4" font-family="Times,serif" font-size="14.00">updated_at :datetime</text>
</g>
<!-- Team&#45;&gt;Tire -->
<g id="edge18" class="edge"><title>Team&#45;&gt;Tire</title>
<path fill="none" stroke="black" d="M593.479,-314.994C638.61,-298.559 696.617,-275.115 745,-248 751.51,-244.352 758.108,-240.23 764.557,-235.918"/>
<ellipse fill="none" stroke="black" cx="589.542" cy="-316.417" rx="4.00001" ry="4.00001"/>
<ellipse fill="black" stroke="black" cx="768.184" cy="-233.437" rx="4.00002" ry="4.00002"/>
</g>
<!-- UserTeam -->
<g id="node13" class="node"><title>UserTeam</title>
<polyline fill="none" stroke="black" points="917.5,-143 1026.5,-143 "/>
<path fill="none" stroke="black" d="M1026.5,-143C1032.5,-143 1038.5,-149 1038.5,-155"/>
<polyline fill="none" stroke="black" points="1038.5,-155 1038.5,-227 "/>
<path fill="none" stroke="black" d="M1038.5,-227C1038.5,-233 1032.5,-239 1026.5,-239"/>
<polyline fill="none" stroke="black" points="1026.5,-239 917.5,-239 "/>
<path fill="none" stroke="black" d="M917.5,-239C911.5,-239 905.5,-233 905.5,-227"/>
<polyline fill="none" stroke="black" points="905.5,-227 905.5,-155 "/>
<path fill="none" stroke="black" d="M905.5,-155C905.5,-149 911.5,-143 917.5,-143"/>
<text text-anchor="middle" x="972" y="-222.4" font-family="Times,serif" font-size="14.00">UserTeam</text>
<polyline fill="none" stroke="black" points="905.5,-215 1038.5,-215 "/>
<text text-anchor="start" x="913.5" y="-198.4" font-family="Times,serif" font-size="14.00">name :string</text>
<text text-anchor="start" x="913.5" y="-182.4" font-family="Times,serif" font-size="14.00">country :string</text>
<text text-anchor="start" x="913.5" y="-166.4" font-family="Times,serif" font-size="14.00">created_at :datetime</text>
<text text-anchor="start" x="913.5" y="-150.4" font-family="Times,serif" font-size="14.00">updated_at :datetime</text>
</g>
<!-- Team&#45;&gt;UserTeam -->
<g id="edge22" class="edge"><title>Team&#45;&gt;UserTeam</title>
<path fill="none" stroke="black" d="M585.667,-331.849C663.144,-320.568 793.461,-295.922 896,-248 901.494,-245.432 906.987,-242.437 912.365,-239.192"/>
</g>
<!-- Tire&#45;&gt;Supplier -->
<g id="edge20" class="edge"><title>Tire&#45;&gt;Supplier</title>
<path fill="none" stroke="black" d="M763.151,-146.238C757.093,-141.998 750.968,-137.849 745,-134 722.268,-119.341 696.832,-104.534 673.457,-91.5204"/>
<ellipse fill="none" stroke="black" cx="766.422" cy="-148.552" rx="4.00002" ry="4.00002"/>
<ellipse fill="black" stroke="black" cx="669.772" cy="-89.4798" rx="4.00002" ry="4.00002"/>
</g>
</g>
</svg>
