<?xml version="1.0" encoding="UTF-8" standalone="no"?>
<!DOCTYPE svg PUBLIC "-//W3C//DTD SVG 1.1//EN"
 "http://www.w3.org/Graphics/SVG/1.1/DTD/svg11.dtd">
<!-- Generated by graphviz version 2.28.0 (20111111.1505)
 -->
<!-- Title: models_diagram Pages: 1 -->
<svg width="1573pt" height="194pt"
 viewBox="0.00 0.00 1573.00 194.00" xmlns="http://www.w3.org/2000/svg" xmlns:xlink="http://www.w3.org/1999/xlink">
<g id="graph1" class="graph" transform="scale(1 1) rotate(0) translate(4 190)">
<title>models_diagram</title>
<polygon fill="white" stroke="white" points="-4,5 -4,-190 1570,-190 1570,5 -4,5"/>
<!-- _diagram_info -->
<g id="node1" class="node"><title>_diagram_info</title>
<text text-anchor="start" x="8" y="-169.8" font-family="Times,serif" font-size="13.00">Models diagram</text>
<text text-anchor="start" x="8" y="-154.8" font-family="Times,serif" font-size="13.00">Date: Dec 07 2011 &#45; 10:32</text>
<text text-anchor="start" x="8" y="-139.8" font-family="Times,serif" font-size="13.00">Migration version: 20111207153221</text>
<text text-anchor="start" x="8" y="-124.8" font-family="Times,serif" font-size="13.00">Generated by RailRoady 1.0.2</text>
<text text-anchor="start" x="8" y="-109.8" font-family="Times,serif" font-size="13.00">http://railroady.prestonlee.com</text>
</g>
<!-- Chassis -->
<g id="node2" class="node"><title>Chassis</title>
<polyline fill="none" stroke="black" points="236.5,-112 345.5,-112 "/>
<path fill="none" stroke="black" d="M345.5,-112C351.5,-112 357.5,-118 357.5,-124"/>
<polyline fill="none" stroke="black" points="357.5,-124 357.5,-164 "/>
<path fill="none" stroke="black" d="M357.5,-164C357.5,-170 351.5,-176 345.5,-176"/>
<polyline fill="none" stroke="black" points="345.5,-176 236.5,-176 "/>
<path fill="none" stroke="black" d="M236.5,-176C230.5,-176 224.5,-170 224.5,-164"/>
<polyline fill="none" stroke="black" points="224.5,-164 224.5,-124 "/>
<path fill="none" stroke="black" d="M224.5,-124C224.5,-118 230.5,-112 236.5,-112"/>
<text text-anchor="middle" x="291" y="-159.4" font-family="Times,serif" font-size="14.00">Chassis</text>
<polyline fill="none" stroke="black" points="224.5,-152 357.5,-152 "/>
<text text-anchor="start" x="232.5" y="-135.4" font-family="Times,serif" font-size="14.00">created_at :datetime</text>
<text text-anchor="start" x="232.5" y="-119.4" font-family="Times,serif" font-size="14.00">updated_at :datetime</text>
</g>
<!-- Driver -->
<g id="node3" class="node"><title>Driver</title>
<polyline fill="none" stroke="black" points="387.5,-112 496.5,-112 "/>
<path fill="none" stroke="black" d="M496.5,-112C502.5,-112 508.5,-118 508.5,-124"/>
<polyline fill="none" stroke="black" points="508.5,-124 508.5,-164 "/>
<path fill="none" stroke="black" d="M508.5,-164C508.5,-170 502.5,-176 496.5,-176"/>
<polyline fill="none" stroke="black" points="496.5,-176 387.5,-176 "/>
<path fill="none" stroke="black" d="M387.5,-176C381.5,-176 375.5,-170 375.5,-164"/>
<polyline fill="none" stroke="black" points="375.5,-164 375.5,-124 "/>
<path fill="none" stroke="black" d="M375.5,-124C375.5,-118 381.5,-112 387.5,-112"/>
<text text-anchor="middle" x="442" y="-159.4" font-family="Times,serif" font-size="14.00">Driver</text>
<polyline fill="none" stroke="black" points="375.5,-152 508.5,-152 "/>
<text text-anchor="start" x="383.5" y="-135.4" font-family="Times,serif" font-size="14.00">created_at :datetime</text>
<text text-anchor="start" x="383.5" y="-119.4" font-family="Times,serif" font-size="14.00">updated_at :datetime</text>
</g>
<!-- Engine -->
<g id="node4" class="node"><title>Engine</title>
<polyline fill="none" stroke="black" points="538.5,-112 647.5,-112 "/>
<path fill="none" stroke="black" d="M647.5,-112C653.5,-112 659.5,-118 659.5,-124"/>
<polyline fill="none" stroke="black" points="659.5,-124 659.5,-164 "/>
<path fill="none" stroke="black" d="M659.5,-164C659.5,-170 653.5,-176 647.5,-176"/>
<polyline fill="none" stroke="black" points="647.5,-176 538.5,-176 "/>
<path fill="none" stroke="black" d="M538.5,-176C532.5,-176 526.5,-170 526.5,-164"/>
<polyline fill="none" stroke="black" points="526.5,-164 526.5,-124 "/>
<path fill="none" stroke="black" d="M526.5,-124C526.5,-118 532.5,-112 538.5,-112"/>
<text text-anchor="middle" x="593" y="-159.4" font-family="Times,serif" font-size="14.00">Engine</text>
<polyline fill="none" stroke="black" points="526.5,-152 659.5,-152 "/>
<text text-anchor="start" x="534.5" y="-135.4" font-family="Times,serif" font-size="14.00">created_at :datetime</text>
<text text-anchor="start" x="534.5" y="-119.4" font-family="Times,serif" font-size="14.00">updated_at :datetime</text>
</g>
<!-- EngineSupplier -->
<g id="node5" class="node"><title>EngineSupplier</title>
<polyline fill="none" stroke="black" points="689.5,-112 798.5,-112 "/>
<path fill="none" stroke="black" d="M798.5,-112C804.5,-112 810.5,-118 810.5,-124"/>
<polyline fill="none" stroke="black" points="810.5,-124 810.5,-164 "/>
<path fill="none" stroke="black" d="M810.5,-164C810.5,-170 804.5,-176 798.5,-176"/>
<polyline fill="none" stroke="black" points="798.5,-176 689.5,-176 "/>
<path fill="none" stroke="black" d="M689.5,-176C683.5,-176 677.5,-170 677.5,-164"/>
<polyline fill="none" stroke="black" points="677.5,-164 677.5,-124 "/>
<path fill="none" stroke="black" d="M677.5,-124C677.5,-118 683.5,-112 689.5,-112"/>
<text text-anchor="middle" x="744" y="-159.4" font-family="Times,serif" font-size="14.00">EngineSupplier</text>
<polyline fill="none" stroke="black" points="677.5,-152 810.5,-152 "/>
<text text-anchor="start" x="685.5" y="-135.4" font-family="Times,serif" font-size="14.00">created_at :datetime</text>
<text text-anchor="start" x="685.5" y="-119.4" font-family="Times,serif" font-size="14.00">updated_at :datetime</text>
</g>
<!-- PitCrew -->
<g id="node6" class="node"><title>PitCrew</title>
<polyline fill="none" stroke="black" points="840.5,-112 949.5,-112 "/>
<path fill="none" stroke="black" d="M949.5,-112C955.5,-112 961.5,-118 961.5,-124"/>
<polyline fill="none" stroke="black" points="961.5,-124 961.5,-164 "/>
<path fill="none" stroke="black" d="M961.5,-164C961.5,-170 955.5,-176 949.5,-176"/>
<polyline fill="none" stroke="black" points="949.5,-176 840.5,-176 "/>
<path fill="none" stroke="black" d="M840.5,-176C834.5,-176 828.5,-170 828.5,-164"/>
<polyline fill="none" stroke="black" points="828.5,-164 828.5,-124 "/>
<path fill="none" stroke="black" d="M828.5,-124C828.5,-118 834.5,-112 840.5,-112"/>
<text text-anchor="middle" x="895" y="-159.4" font-family="Times,serif" font-size="14.00">PitCrew</text>
<polyline fill="none" stroke="black" points="828.5,-152 961.5,-152 "/>
<text text-anchor="start" x="836.5" y="-135.4" font-family="Times,serif" font-size="14.00">created_at :datetime</text>
<text text-anchor="start" x="836.5" y="-119.4" font-family="Times,serif" font-size="14.00">updated_at :datetime</text>
</g>
<!-- QualifyingSession -->
<g id="node7" class="node"><title>QualifyingSession</title>
<polyline fill="none" stroke="black" points="991.5,-112 1100.5,-112 "/>
<path fill="none" stroke="black" d="M1100.5,-112C1106.5,-112 1112.5,-118 1112.5,-124"/>
<polyline fill="none" stroke="black" points="1112.5,-124 1112.5,-164 "/>
<path fill="none" stroke="black" d="M1112.5,-164C1112.5,-170 1106.5,-176 1100.5,-176"/>
<polyline fill="none" stroke="black" points="1100.5,-176 991.5,-176 "/>
<path fill="none" stroke="black" d="M991.5,-176C985.5,-176 979.5,-170 979.5,-164"/>
<polyline fill="none" stroke="black" points="979.5,-164 979.5,-124 "/>
<path fill="none" stroke="black" d="M979.5,-124C979.5,-118 985.5,-112 991.5,-112"/>
<text text-anchor="middle" x="1046" y="-159.4" font-family="Times,serif" font-size="14.00">QualifyingSession</text>
<polyline fill="none" stroke="black" points="979.5,-152 1112.5,-152 "/>
<text text-anchor="start" x="987.5" y="-135.4" font-family="Times,serif" font-size="14.00">created_at :datetime</text>
<text text-anchor="start" x="987.5" y="-119.4" font-family="Times,serif" font-size="14.00">updated_at :datetime</text>
</g>
<!-- Race -->
<g id="node8" class="node"><title>Race</title>
<polyline fill="none" stroke="black" points="1142.5,-1 1251.5,-1 "/>
<path fill="none" stroke="black" d="M1251.5,-1C1257.5,-1 1263.5,-7 1263.5,-13"/>
<polyline fill="none" stroke="black" points="1263.5,-13 1263.5,-53 "/>
<path fill="none" stroke="black" d="M1263.5,-53C1263.5,-59 1257.5,-65 1251.5,-65"/>
<polyline fill="none" stroke="black" points="1251.5,-65 1142.5,-65 "/>
<path fill="none" stroke="black" d="M1142.5,-65C1136.5,-65 1130.5,-59 1130.5,-53"/>
<polyline fill="none" stroke="black" points="1130.5,-53 1130.5,-13 "/>
<path fill="none" stroke="black" d="M1130.5,-13C1130.5,-7 1136.5,-1 1142.5,-1"/>
<text text-anchor="middle" x="1197" y="-48.4" font-family="Times,serif" font-size="14.00">Race</text>
<polyline fill="none" stroke="black" points="1130.5,-41 1263.5,-41 "/>
<text text-anchor="start" x="1138.5" y="-24.4" font-family="Times,serif" font-size="14.00">created_at :datetime</text>
<text text-anchor="start" x="1138.5" y="-8.4" font-family="Times,serif" font-size="14.00">updated_at :datetime</text>
</g>
<!-- Season -->
<g id="node9" class="node"><title>Season</title>
<polyline fill="none" stroke="black" points="1142.5,-104 1251.5,-104 "/>
<path fill="none" stroke="black" d="M1251.5,-104C1257.5,-104 1263.5,-110 1263.5,-116"/>
<polyline fill="none" stroke="black" points="1263.5,-116 1263.5,-172 "/>
<path fill="none" stroke="black" d="M1263.5,-172C1263.5,-178 1257.5,-184 1251.5,-184"/>
<polyline fill="none" stroke="black" points="1251.5,-184 1142.5,-184 "/>
<path fill="none" stroke="black" d="M1142.5,-184C1136.5,-184 1130.5,-178 1130.5,-172"/>
<polyline fill="none" stroke="black" points="1130.5,-172 1130.5,-116 "/>
<path fill="none" stroke="black" d="M1130.5,-116C1130.5,-110 1136.5,-104 1142.5,-104"/>
<text text-anchor="middle" x="1197" y="-167.4" font-family="Times,serif" font-size="14.00">Season</text>
<polyline fill="none" stroke="black" points="1130.5,-160 1263.5,-160 "/>
<text text-anchor="start" x="1138.5" y="-143.4" font-family="Times,serif" font-size="14.00">name :string</text>
<text text-anchor="start" x="1138.5" y="-127.4" font-family="Times,serif" font-size="14.00">created_at :datetime</text>
<text text-anchor="start" x="1138.5" y="-111.4" font-family="Times,serif" font-size="14.00">updated_at :datetime</text>
</g>
<!-- Season&#45;&gt;Race -->
<g id="edge2" class="edge"><title>Season&#45;&gt;Race</title>
<path fill="none" stroke="black" d="M1197,-95.7817C1197,-89.0065 1197,-82.0784 1197,-75.4265"/>
<ellipse fill="none" stroke="black" cx="1197" cy="-99.9564" rx="4" ry="4"/>
<polygon fill="black" stroke="black" points="1197,-75.2624 1201.5,-65.2624 1197,-70.2624 1197,-65.2624 1197,-65.2624 1197,-65.2624 1197,-70.2624 1192.5,-65.2624 1197,-75.2624 1197,-75.2624"/>
</g>
<!-- Team -->
<g id="node10" class="node"><title>Team</title>
<polyline fill="none" stroke="black" points="1293.5,-112 1402.5,-112 "/>
<path fill="none" stroke="black" d="M1402.5,-112C1408.5,-112 1414.5,-118 1414.5,-124"/>
<polyline fill="none" stroke="black" points="1414.5,-124 1414.5,-164 "/>
<path fill="none" stroke="black" d="M1414.5,-164C1414.5,-170 1408.5,-176 1402.5,-176"/>
<polyline fill="none" stroke="black" points="1402.5,-176 1293.5,-176 "/>
<path fill="none" stroke="black" d="M1293.5,-176C1287.5,-176 1281.5,-170 1281.5,-164"/>
<polyline fill="none" stroke="black" points="1281.5,-164 1281.5,-124 "/>
<path fill="none" stroke="black" d="M1281.5,-124C1281.5,-118 1287.5,-112 1293.5,-112"/>
<text text-anchor="middle" x="1348" y="-159.4" font-family="Times,serif" font-size="14.00">Team</text>
<polyline fill="none" stroke="black" points="1281.5,-152 1414.5,-152 "/>
<text text-anchor="start" x="1289.5" y="-135.4" font-family="Times,serif" font-size="14.00">created_at :datetime</text>
<text text-anchor="start" x="1289.5" y="-119.4" font-family="Times,serif" font-size="14.00">updated_at :datetime</text>
</g>
<!-- Tire -->
<g id="node11" class="node"><title>Tire</title>
<polyline fill="none" stroke="black" points="1444.5,-112 1553.5,-112 "/>
<path fill="none" stroke="black" d="M1553.5,-112C1559.5,-112 1565.5,-118 1565.5,-124"/>
<polyline fill="none" stroke="black" points="1565.5,-124 1565.5,-164 "/>
<path fill="none" stroke="black" d="M1565.5,-164C1565.5,-170 1559.5,-176 1553.5,-176"/>
<polyline fill="none" stroke="black" points="1553.5,-176 1444.5,-176 "/>
<path fill="none" stroke="black" d="M1444.5,-176C1438.5,-176 1432.5,-170 1432.5,-164"/>
<polyline fill="none" stroke="black" points="1432.5,-164 1432.5,-124 "/>
<path fill="none" stroke="black" d="M1432.5,-124C1432.5,-118 1438.5,-112 1444.5,-112"/>
<text text-anchor="middle" x="1499" y="-159.4" font-family="Times,serif" font-size="14.00">Tire</text>
<polyline fill="none" stroke="black" points="1432.5,-152 1565.5,-152 "/>
<text text-anchor="start" x="1440.5" y="-135.4" font-family="Times,serif" font-size="14.00">created_at :datetime</text>
<text text-anchor="start" x="1440.5" y="-119.4" font-family="Times,serif" font-size="14.00">updated_at :datetime</text>
</g>
</g>
</svg>
