<?xml version="1.0" encoding="UTF-8" standalone="no"?>
<!DOCTYPE svg PUBLIC "-//W3C//DTD SVG 1.1//EN"
 "http://www.w3.org/Graphics/SVG/1.1/DTD/svg11.dtd">
<!-- Generated by graphviz version 2.28.0 (20111111.1505)
 -->
<!-- Title: models_diagram Pages: 1 -->
<svg width="1171pt" height="164pt"
 viewBox="0.00 0.00 1171.00 164.00" xmlns="http://www.w3.org/2000/svg" xmlns:xlink="http://www.w3.org/1999/xlink">
<g id="graph1" class="graph" transform="scale(1 1) rotate(0) translate(4 160)">
<title>models_diagram</title>
<polygon fill="white" stroke="white" points="-4,5 -4,-160 1168,-160 1168,5 -4,5"/>
<!-- _diagram_info -->
<g id="node1" class="node"><title>_diagram_info</title>
<text text-anchor="start" x="8" y="-139.8" font-family="Times,serif" font-size="13.00">Models diagram</text>
<text text-anchor="start" x="8" y="-124.8" font-family="Times,serif" font-size="13.00">Date: Dec 07 2011 &#45; 10:32</text>
<text text-anchor="start" x="8" y="-109.8" font-family="Times,serif" font-size="13.00">Migration version: 20111207153221</text>
<text text-anchor="start" x="8" y="-94.8" font-family="Times,serif" font-size="13.00">Generated by RailRoady 1.0.2</text>
<text text-anchor="start" x="8" y="-79.8" font-family="Times,serif" font-size="13.00">http://railroady.prestonlee.com</text>
</g>
<!-- Chassis -->
<g id="node2" class="node"><title>Chassis</title>
<ellipse fill="none" stroke="black" cx="264" cy="-114" rx="39.3672" ry="18"/>
<text text-anchor="middle" x="264" y="-109.4" font-family="Times,serif" font-size="14.00">Chassis</text>
</g>
<!-- Driver -->
<g id="node3" class="node"><title>Driver</title>
<ellipse fill="none" stroke="black" cx="356" cy="-114" rx="34.3259" ry="18"/>
<text text-anchor="middle" x="356" y="-109.4" font-family="Times,serif" font-size="14.00">Driver</text>
</g>
<!-- Engine -->
<g id="node4" class="node"><title>Engine</title>
<ellipse fill="none" stroke="black" cx="446" cy="-114" rx="37.3485" ry="18"/>
<text text-anchor="middle" x="446" y="-109.4" font-family="Times,serif" font-size="14.00">Engine</text>
</g>
<!-- EngineSupplier -->
<g id="node5" class="node"><title>EngineSupplier</title>
<ellipse fill="none" stroke="black" cx="570" cy="-114" rx="68.1358" ry="18"/>
<text text-anchor="middle" x="570" y="-109.4" font-family="Times,serif" font-size="14.00">EngineSupplier</text>
</g>
<!-- PitCrew -->
<g id="node6" class="node"><title>PitCrew</title>
<ellipse fill="none" stroke="black" cx="698" cy="-114" rx="41.3858" ry="18"/>
<text text-anchor="middle" x="698" y="-109.4" font-family="Times,serif" font-size="14.00">PitCrew</text>
</g>
<!-- QualifyingSession -->
<g id="node7" class="node"><title>QualifyingSession</title>
<ellipse fill="none" stroke="black" cx="836" cy="-114" rx="78.229" ry="18"/>
<text text-anchor="middle" x="836" y="-109.4" font-family="Times,serif" font-size="14.00">QualifyingSession</text>
</g>
<!-- Race -->
<g id="node8" class="node"><title>Race</title>
<ellipse fill="none" stroke="black" cx="970" cy="-18" rx="30.281" ry="18"/>
<text text-anchor="middle" x="970" y="-13.4" font-family="Times,serif" font-size="14.00">Race</text>
</g>
<!-- Season -->
<g id="node9" class="node"><title>Season</title>
<ellipse fill="none" stroke="black" cx="970" cy="-114" rx="37.3485" ry="18"/>
<text text-anchor="middle" x="970" y="-109.4" font-family="Times,serif" font-size="14.00">Season</text>
</g>
<!-- Season&#45;&gt;Race -->
<g id="edge2" class="edge"><title>Season&#45;&gt;Race</title>
<path fill="none" stroke="black" d="M970,-87.6832C970,-74.9229 970,-59.4317 970,-46.3933"/>
<ellipse fill="none" stroke="black" cx="970" cy="-91.759" rx="4" ry="4"/>
<polygon fill="black" stroke="black" points="970,-46.1317 974.5,-36.1317 970,-41.1317 970,-36.1317 970,-36.1317 970,-36.1317 970,-41.1317 965.5,-36.1318 970,-46.1317 970,-46.1317"/>
</g>
<!-- Team -->
<g id="node10" class="node"><title>Team</title>
<ellipse fill="none" stroke="black" cx="1058" cy="-114" rx="32.3075" ry="18"/>
<text text-anchor="middle" x="1058" y="-109.4" font-family="Times,serif" font-size="14.00">Team</text>
</g>
<!-- Tire -->
<g id="node11" class="node"><title>Tire</title>
<ellipse fill="none" stroke="black" cx="1136" cy="-114" rx="27" ry="18"/>
<text text-anchor="middle" x="1136" y="-109.4" font-family="Times,serif" font-size="14.00">Tire</text>
</g>
</g>
</svg>
