<?xml version="1.0" encoding="UTF-8" standalone="no"?>
<!DOCTYPE svg PUBLIC "-//W3C//DTD SVG 1.1//EN"
 "http://www.w3.org/Graphics/SVG/1.1/DTD/svg11.dtd">
<!-- Generated by graphviz version 2.28.0 (20111111.1505)
 -->
<!-- Title: models_diagram Pages: 1 -->
<svg width="910pt" height="236pt"
 viewBox="0.00 0.00 910.00 236.00" xmlns="http://www.w3.org/2000/svg" xmlns:xlink="http://www.w3.org/1999/xlink">
<g id="graph1" class="graph" transform="scale(1 1) rotate(0) translate(4 232)">
<title>models_diagram</title>
<polygon fill="white" stroke="white" points="-4,5 -4,-232 907,-232 907,5 -4,5"/>
<!-- _diagram_info -->
<g id="node1" class="node"><title>_diagram_info</title>
<text text-anchor="start" x="8" y="-211.8" font-family="Times,serif" font-size="13.00">Models diagram</text>
<text text-anchor="start" x="8" y="-196.8" font-family="Times,serif" font-size="13.00">Date: Dec 07 2011 &#45; 14:15</text>
<text text-anchor="start" x="8" y="-181.8" font-family="Times,serif" font-size="13.00">Migration version: 20111207180742</text>
<text text-anchor="start" x="8" y="-166.8" font-family="Times,serif" font-size="13.00">Generated by RailRoady 1.0.2</text>
<text text-anchor="start" x="8" y="-151.8" font-family="Times,serif" font-size="13.00">http://railroady.prestonlee.com</text>
</g>
<!-- Chassis -->
<g id="node2" class="node"><title>Chassis</title>
<ellipse fill="none" stroke="black" cx="264" cy="-186" rx="39.3672" ry="18"/>
<text text-anchor="middle" x="264" y="-181.4" font-family="Times,serif" font-size="14.00">Chassis</text>
</g>
<!-- Driver -->
<g id="node3" class="node"><title>Driver</title>
<ellipse fill="none" stroke="black" cx="64" cy="-90" rx="34.3259" ry="18"/>
<text text-anchor="middle" x="64" y="-85.4" font-family="Times,serif" font-size="14.00">Driver</text>
</g>
<!-- Engine -->
<g id="node4" class="node"><title>Engine</title>
<ellipse fill="none" stroke="black" cx="154" cy="-90" rx="37.3485" ry="18"/>
<text text-anchor="middle" x="154" y="-85.4" font-family="Times,serif" font-size="14.00">Engine</text>
</g>
<!-- Supplier -->
<g id="node15" class="node"><title>Supplier</title>
<ellipse fill="none" stroke="black" cx="298" cy="-18" rx="41.8946" ry="18"/>
<text text-anchor="middle" x="298" y="-13.4" font-family="Times,serif" font-size="14.00">Supplier</text>
</g>
<!-- Engine&#45;&gt;Supplier -->
<g id="edge2" class="edge"><title>Engine&#45;&gt;Supplier</title>
<path fill="none" stroke="black" d="M186.649,-73.129C209.6,-61.9721 240.251,-47.0722 263.585,-35.7296"/>
<ellipse fill="none" stroke="black" cx="183.01" cy="-74.8977" rx="4.00002" ry="4.00002"/>
<ellipse fill="black" stroke="black" cx="267.287" cy="-33.93" rx="4.00002" ry="4.00002"/>
</g>
<!-- F1Team -->
<g id="node5" class="node"><title>F1Team</title>
<ellipse fill="none" stroke="black" cx="252" cy="-90" rx="41.8946" ry="18"/>
<text text-anchor="middle" x="252" y="-85.4" font-family="Times,serif" font-size="14.00">F1Team</text>
</g>
<!-- PitCrew -->
<g id="node6" class="node"><title>PitCrew</title>
<ellipse fill="none" stroke="black" cx="354" cy="-90" rx="41.3858" ry="18"/>
<text text-anchor="middle" x="354" y="-85.4" font-family="Times,serif" font-size="14.00">PitCrew</text>
</g>
<!-- RaceMeeting -->
<g id="node7" class="node"><title>RaceMeeting</title>
<ellipse fill="none" stroke="black" cx="756" cy="-90" rx="61.067" ry="18"/>
<text text-anchor="middle" x="756" y="-85.4" font-family="Times,serif" font-size="14.00">RaceMeeting</text>
</g>
<!-- RaceSession -->
<g id="node8" class="node"><title>RaceSession</title>
<ellipse fill="none" stroke="black" cx="756" cy="-18" rx="58.0428" ry="18"/>
<text text-anchor="middle" x="756" y="-13.4" font-family="Times,serif" font-size="14.00">RaceSession</text>
</g>
<!-- RaceMeeting&#45;&gt;RaceSession -->
<g id="edge6" class="edge"><title>RaceMeeting&#45;&gt;RaceSession</title>
<path fill="none" stroke="black" d="M756,-63.6398C756,-58.0629 756,-52.1319 756,-46.4761"/>
<ellipse fill="none" stroke="black" cx="756" cy="-67.6966" rx="4" ry="4"/>
<polygon fill="black" stroke="black" points="756,-46.1043 760.5,-36.1043 756,-41.1043 756,-36.1043 756,-36.1043 756,-36.1043 756,-41.1043 751.5,-36.1044 756,-46.1043 756,-46.1043"/>
</g>
<!-- Season -->
<g id="node9" class="node"><title>Season</title>
<ellipse fill="none" stroke="black" cx="756" cy="-186" rx="37.3485" ry="18"/>
<text text-anchor="middle" x="756" y="-181.4" font-family="Times,serif" font-size="14.00">Season</text>
</g>
<!-- Season&#45;&gt;RaceMeeting -->
<g id="edge8" class="edge"><title>Season&#45;&gt;RaceMeeting</title>
<path fill="none" stroke="black" d="M756,-159.683C756,-146.923 756,-131.432 756,-118.393"/>
<ellipse fill="none" stroke="black" cx="756" cy="-163.759" rx="4" ry="4"/>
<polygon fill="black" stroke="black" points="756,-118.132 760.5,-108.132 756,-113.132 756,-108.132 756,-108.132 756,-108.132 756,-113.132 751.5,-108.132 756,-118.132 756,-118.132"/>
</g>
<!-- Suppliers -->
<g id="node10" class="node"><title>Suppliers</title>
<ellipse fill="none" stroke="black" cx="857" cy="-186" rx="45.4232" ry="18"/>
<text text-anchor="middle" x="857" y="-181.4" font-family="Times,serif" font-size="14.00">Suppliers</text>
</g>
<!-- Team -->
<g id="node11" class="node"><title>Team</title>
<ellipse fill="none" stroke="black" cx="354" cy="-186" rx="32.3075" ry="18"/>
<text text-anchor="middle" x="354" y="-181.4" font-family="Times,serif" font-size="14.00">Team</text>
</g>
<!-- Team&#45;&gt;Driver -->
<g id="edge12" class="edge"><title>Team&#45;&gt;Driver</title>
<path fill="none" stroke="black" d="M335.908,-162.63C329.125,-155.63 320.887,-148.555 312,-144 229.676,-101.809 196.025,-133.134 107,-108 104.41,-107.269 101.76,-106.437 99.1112,-105.544"/>
<ellipse fill="none" stroke="black" cx="339.004" cy="-166.011" rx="4.00002" ry="4.00002"/>
<polygon fill="black" stroke="black" points="99.0327,-105.516 91.1615,-97.8811 94.3313,-103.814 89.6298,-102.112 89.6298,-102.112 89.6298,-102.112 94.3313,-103.814 88.0981,-106.344 99.0327,-105.516 99.0327,-105.516"/>
</g>
<!-- Team&#45;&gt;Engine -->
<g id="edge14" class="edge"><title>Team&#45;&gt;Engine</title>
<path fill="none" stroke="black" d="M335.199,-163.001C328.45,-156.158 320.414,-149.083 312,-144 267.61,-117.18 250.059,-124.823 201,-108 197.583,-106.828 194.035,-105.588 190.489,-104.333"/>
<ellipse fill="none" stroke="black" cx="338.264" cy="-166.247" rx="4.00002" ry="4.00002"/>
<ellipse fill="black" stroke="black" cx="186.546" cy="-102.926" rx="4.00001" ry="4.00001"/>
</g>
<!-- Team&#45;&gt;F1Team -->
<g id="edge4" class="edge"><title>Team&#45;&gt;F1Team</title>
<path fill="none" stroke="black" d="M339.012,-170.013C331.075,-162.168 321.109,-152.46 312,-144 298.149,-131.137 282.081,-116.983 270.061,-106.54"/>
</g>
<!-- Team&#45;&gt;PitCrew -->
<g id="edge16" class="edge"><title>Team&#45;&gt;PitCrew</title>
<path fill="none" stroke="black" d="M354,-159.683C354,-146.285 354,-129.876 354,-116.457"/>
<ellipse fill="none" stroke="black" cx="354" cy="-163.759" rx="4" ry="4"/>
<ellipse fill="black" stroke="black" cx="354" cy="-112.132" rx="4" ry="4"/>
</g>
<!-- Tire -->
<g id="node12" class="node"><title>Tire</title>
<ellipse fill="none" stroke="black" cx="441" cy="-90" rx="27" ry="18"/>
<text text-anchor="middle" x="441" y="-85.4" font-family="Times,serif" font-size="14.00">Tire</text>
</g>
<!-- Team&#45;&gt;Tire -->
<g id="edge18" class="edge"><title>Team&#45;&gt;Tire</title>
<path fill="none" stroke="black" d="M374.091,-163.293C388.429,-147.801 407.601,-127.087 421.746,-111.803"/>
<ellipse fill="none" stroke="black" cx="371.083" cy="-166.542" rx="4.00002" ry="4.00002"/>
<ellipse fill="black" stroke="black" cx="424.755" cy="-108.552" rx="4.00002" ry="4.00002"/>
</g>
<!-- UserTeam -->
<g id="node13" class="node"><title>UserTeam</title>
<ellipse fill="none" stroke="black" cx="536" cy="-90" rx="49.9686" ry="18"/>
<text text-anchor="middle" x="536" y="-85.4" font-family="Times,serif" font-size="14.00">UserTeam</text>
</g>
<!-- Team&#45;&gt;UserTeam -->
<g id="edge22" class="edge"><title>Team&#45;&gt;UserTeam</title>
<path fill="none" stroke="black" d="M377.05,-173.095C410.624,-155.755 472.867,-123.607 508.693,-105.104"/>
</g>
<!-- Chassi -->
<g id="node20" class="node"><title>Chassi</title>
<ellipse fill="none" stroke="black" cx="641" cy="-90" rx="36.3372" ry="18"/>
<text text-anchor="middle" x="641" y="-85.4" font-family="Times,serif" font-size="14.00">Chassi</text>
</g>
<!-- Team&#45;&gt;Chassi -->
<g id="edge10" class="edge"><title>Team&#45;&gt;Chassi</title>
<path fill="none" stroke="black" d="M389.763,-174.122C436.968,-159.638 522.566,-132.942 595,-108 598.351,-106.846 601.828,-105.618 605.302,-104.37"/>
<ellipse fill="none" stroke="black" cx="385.791" cy="-175.339" rx="4.00001" ry="4.00001"/>
<ellipse fill="black" stroke="black" cx="609.092" cy="-102.994" rx="4.00001" ry="4.00001"/>
</g>
<!-- Tire&#45;&gt;Supplier -->
<g id="edge20" class="edge"><title>Tire&#45;&gt;Supplier</title>
<path fill="none" stroke="black" d="M412.681,-75.1375C389.46,-63.7706 356.523,-47.6478 331.901,-35.5949"/>
<ellipse fill="none" stroke="black" cx="416.307" cy="-76.9126" rx="4.00002" ry="4.00002"/>
<ellipse fill="black" stroke="black" cx="328.139" cy="-33.7534" rx="4.00002" ry="4.00002"/>
</g>
</g>
</svg>
