<?xml version="1.0" encoding="UTF-8" standalone="no"?>
<!DOCTYPE svg PUBLIC "-//W3C//DTD SVG 1.1//EN"
 "http://www.w3.org/Graphics/SVG/1.1/DTD/svg11.dtd">
<!-- Generated by graphviz version 2.28.0 (20111111.1505)
 -->
<!-- Title: models_diagram Pages: 1 -->
<svg width="796pt" height="308pt"
 viewBox="0.00 0.00 796.00 308.00" xmlns="http://www.w3.org/2000/svg" xmlns:xlink="http://www.w3.org/1999/xlink">
<g id="graph1" class="graph" transform="scale(1 1) rotate(0) translate(4 304)">
<title>models_diagram</title>
<polygon fill="white" stroke="white" points="-4,5 -4,-304 793,-304 793,5 -4,5"/>
<!-- _diagram_info -->
<g id="node1" class="node"><title>_diagram_info</title>
<text text-anchor="start" x="115" y="-283.8" font-family="Times,serif" font-size="13.00">Models diagram</text>
<text text-anchor="start" x="115" y="-268.8" font-family="Times,serif" font-size="13.00">Date: Dec 07 2011 &#45; 15:32</text>
<text text-anchor="start" x="115" y="-253.8" font-family="Times,serif" font-size="13.00">Migration version: 20111207202846</text>
<text text-anchor="start" x="115" y="-238.8" font-family="Times,serif" font-size="13.00">Generated by RailRoady 1.0.2</text>
<text text-anchor="start" x="115" y="-223.8" font-family="Times,serif" font-size="13.00">http://railroady.prestonlee.com</text>
</g>
<!-- Chassis -->
<g id="node2" class="node"><title>Chassis</title>
<ellipse fill="none" stroke="black" cx="39" cy="-90" rx="39.3672" ry="18"/>
<text text-anchor="middle" x="39" y="-85.4" font-family="Times,serif" font-size="14.00">Chassis</text>
</g>
<!-- Driver -->
<g id="node3" class="node"><title>Driver</title>
<ellipse fill="none" stroke="black" cx="131" cy="-90" rx="34.3259" ry="18"/>
<text text-anchor="middle" x="131" y="-85.4" font-family="Times,serif" font-size="14.00">Driver</text>
</g>
<!-- Engine -->
<g id="node4" class="node"><title>Engine</title>
<ellipse fill="none" stroke="black" cx="221" cy="-90" rx="37.3485" ry="18"/>
<text text-anchor="middle" x="221" y="-85.4" font-family="Times,serif" font-size="14.00">Engine</text>
</g>
<!-- Supplier -->
<g id="node11" class="node"><title>Supplier</title>
<ellipse fill="none" stroke="black" cx="364" cy="-18" rx="41.8946" ry="18"/>
<text text-anchor="middle" x="364" y="-13.4" font-family="Times,serif" font-size="14.00">Supplier</text>
</g>
<!-- Engine&#45;&gt;Supplier -->
<g id="edge2" class="edge"><title>Engine&#45;&gt;Supplier</title>
<path fill="none" stroke="black" d="M253.422,-73.129C276.214,-61.9721 306.653,-47.0722 329.824,-35.7296"/>
<ellipse fill="none" stroke="black" cx="249.829" cy="-74.8879" rx="4.00002" ry="4.00002"/>
<ellipse fill="black" stroke="black" cx="333.48" cy="-33.9399" rx="4.00002" ry="4.00002"/>
</g>
<!-- F1Team -->
<g id="node5" class="node"><title>F1Team</title>
<ellipse fill="none" stroke="black" cx="319" cy="-90" rx="41.8946" ry="18"/>
<text text-anchor="middle" x="319" y="-85.4" font-family="Times,serif" font-size="14.00">F1Team</text>
</g>
<!-- League -->
<g id="node6" class="node"><title>League</title>
<ellipse fill="none" stroke="black" cx="370" cy="-258" rx="38.3627" ry="18"/>
<text text-anchor="middle" x="370" y="-253.4" font-family="Times,serif" font-size="14.00">League</text>
</g>
<!-- Team -->
<g id="node12" class="node"><title>Team</title>
<ellipse fill="none" stroke="black" cx="370" cy="-162" rx="32.3075" ry="18"/>
<text text-anchor="middle" x="370" y="-157.4" font-family="Times,serif" font-size="14.00">Team</text>
</g>
<!-- League&#45;&gt;Team -->
<g id="edge6" class="edge"><title>League&#45;&gt;Team</title>
<path fill="none" stroke="black" d="M370,-231.683C370,-218.923 370,-203.432 370,-190.393"/>
<ellipse fill="none" stroke="black" cx="370" cy="-235.759" rx="4" ry="4"/>
<polygon fill="black" stroke="black" points="370,-190.132 374.5,-180.132 370,-185.132 370,-180.132 370,-180.132 370,-180.132 370,-185.132 365.5,-180.132 370,-190.132 370,-190.132"/>
</g>
<!-- PitCrew -->
<g id="node7" class="node"><title>PitCrew</title>
<ellipse fill="none" stroke="black" cx="421" cy="-90" rx="41.3858" ry="18"/>
<text text-anchor="middle" x="421" y="-85.4" font-family="Times,serif" font-size="14.00">PitCrew</text>
</g>
<!-- RaceMeeting -->
<g id="node8" class="node"><title>RaceMeeting</title>
<ellipse fill="none" stroke="black" cx="631" cy="-162" rx="61.067" ry="18"/>
<text text-anchor="middle" x="631" y="-157.4" font-family="Times,serif" font-size="14.00">RaceMeeting</text>
</g>
<!-- RaceSession -->
<g id="node9" class="node"><title>RaceSession</title>
<ellipse fill="none" stroke="black" cx="730" cy="-90" rx="58.0428" ry="18"/>
<text text-anchor="middle" x="730" y="-85.4" font-family="Times,serif" font-size="14.00">RaceSession</text>
</g>
<!-- RaceMeeting&#45;&gt;RaceSession -->
<g id="edge8" class="edge"><title>RaceMeeting&#45;&gt;RaceSession</title>
<path fill="none" stroke="black" d="M660.189,-140.361C672.509,-131.65 686.86,-121.503 699.335,-112.682"/>
<ellipse fill="none" stroke="black" cx="656.731" cy="-142.807" rx="4.00002" ry="4.00002"/>
<polygon fill="black" stroke="black" points="699.459,-112.595 710.222,-110.496 703.542,-109.708 707.624,-106.821 707.624,-106.821 707.624,-106.821 703.542,-109.708 705.026,-103.147 699.459,-112.595 699.459,-112.595"/>
</g>
<!-- Season -->
<g id="node10" class="node"><title>Season</title>
<ellipse fill="none" stroke="black" cx="547" cy="-258" rx="37.3485" ry="18"/>
<text text-anchor="middle" x="547" y="-253.4" font-family="Times,serif" font-size="14.00">Season</text>
</g>
<!-- Season&#45;&gt;RaceMeeting -->
<g id="edge10" class="edge"><title>Season&#45;&gt;RaceMeeting</title>
<path fill="none" stroke="black" d="M566.95,-234.675C579.682,-220.427 596.188,-201.956 609.254,-187.334"/>
<ellipse fill="none" stroke="black" cx="563.915" cy="-238.072" rx="4.00002" ry="4.00002"/>
<polygon fill="black" stroke="black" points="609.451,-187.115 619.469,-182.657 612.782,-183.386 616.114,-179.658 616.114,-179.658 616.114,-179.658 612.782,-183.386 612.759,-176.66 609.451,-187.115 609.451,-187.115"/>
</g>
<!-- Season&#45;&gt;Team -->
<g id="edge12" class="edge"><title>Season&#45;&gt;Team</title>
<path fill="none" stroke="black" d="M515.559,-240.302C483.403,-223.225 433.729,-196.845 401.538,-179.749"/>
<ellipse fill="none" stroke="black" cx="519.227" cy="-242.251" rx="4.00002" ry="4.00002"/>
<polygon fill="black" stroke="black" points="401.382,-179.666 394.661,-171.001 396.966,-177.321 392.55,-174.976 392.55,-174.976 392.55,-174.976 396.966,-177.321 390.439,-178.95 401.382,-179.666 401.382,-179.666"/>
</g>
<!-- Team&#45;&gt;Chassis -->
<g id="edge14" class="edge"><title>Team&#45;&gt;Chassis</title>
<path fill="none" stroke="black" d="M330.559,-155.592C275.474,-147.593 172.629,-131.032 87,-108 83.3504,-107.018 79.5811,-105.89 75.834,-104.693"/>
<ellipse fill="none" stroke="black" cx="334.697" cy="-156.187" rx="4.00001" ry="4.00001"/>
<ellipse fill="black" stroke="black" cx="72.0145" cy="-103.422" rx="4.00001" ry="4.00001"/>
</g>
<!-- Team&#45;&gt;Driver -->
<g id="edge16" class="edge"><title>Team&#45;&gt;Driver</title>
<path fill="none" stroke="black" d="M332.628,-152.222C292.914,-142.587 228.463,-126.066 174,-108 171.6,-107.204 169.139,-106.346 166.67,-105.454"/>
<ellipse fill="none" stroke="black" cx="336.584" cy="-153.176" rx="4.00001" ry="4.00001"/>
<polygon fill="black" stroke="black" points="166.569,-105.417 158.789,-97.6891 161.888,-103.659 157.207,-101.902 157.207,-101.902 157.207,-101.902 161.888,-103.659 155.626,-106.115 166.569,-105.417 166.569,-105.417"/>
</g>
<!-- Team&#45;&gt;Engine -->
<g id="edge18" class="edge"><title>Team&#45;&gt;Engine</title>
<path fill="none" stroke="black" d="M338.707,-146.299C314.008,-134.695 279.625,-118.542 254.397,-106.69"/>
<ellipse fill="none" stroke="black" cx="342.44" cy="-148.052" rx="4.00002" ry="4.00002"/>
<ellipse fill="black" stroke="black" cx="250.502" cy="-104.86" rx="4.00002" ry="4.00002"/>
</g>
<!-- Team&#45;&gt;F1Team -->
<g id="edge4" class="edge"><title>Team&#45;&gt;F1Team</title>
<path fill="none" stroke="black" d="M358.427,-145.116C350.198,-133.821 339.178,-118.696 330.881,-107.307"/>
</g>
<!-- Team&#45;&gt;PitCrew -->
<g id="edge20" class="edge"><title>Team&#45;&gt;PitCrew</title>
<path fill="none" stroke="black" d="M386.459,-138.409C392.109,-130.654 398.439,-121.967 404.121,-114.167"/>
<ellipse fill="none" stroke="black" cx="383.928" cy="-141.883" rx="4.00002" ry="4.00002"/>
<ellipse fill="black" stroke="black" cx="406.764" cy="-110.54" rx="4.00002" ry="4.00002"/>
</g>
<!-- Tire -->
<g id="node13" class="node"><title>Tire</title>
<ellipse fill="none" stroke="black" cx="508" cy="-90" rx="27" ry="18"/>
<text text-anchor="middle" x="508" y="-85.4" font-family="Times,serif" font-size="14.00">Tire</text>
</g>
<!-- Team&#45;&gt;Tire -->
<g id="edge22" class="edge"><title>Team&#45;&gt;Tire</title>
<path fill="none" stroke="black" d="M400.539,-145.509C424.159,-133.528 456.614,-117.066 479.66,-105.375"/>
<ellipse fill="none" stroke="black" cx="396.665" cy="-147.474" rx="4.00002" ry="4.00002"/>
<ellipse fill="black" stroke="black" cx="483.521" cy="-103.417" rx="4.00002" ry="4.00002"/>
</g>
<!-- UserTeam -->
<g id="node14" class="node"><title>UserTeam</title>
<ellipse fill="none" stroke="black" cx="603" cy="-90" rx="49.9686" ry="18"/>
<text text-anchor="middle" x="603" y="-85.4" font-family="Times,serif" font-size="14.00">UserTeam</text>
</g>
<!-- Team&#45;&gt;UserTeam -->
<g id="edge26" class="edge"><title>Team&#45;&gt;UserTeam</title>
<path fill="none" stroke="black" d="M398.105,-152.556C439.984,-139.975 518.832,-116.286 565.558,-102.249"/>
</g>
<!-- Tire&#45;&gt;Supplier -->
<g id="edge24" class="edge"><title>Tire&#45;&gt;Supplier</title>
<path fill="none" stroke="black" d="M479.483,-75.1375C456.099,-63.7706 422.933,-47.6478 398.138,-35.5949"/>
<ellipse fill="none" stroke="black" cx="483.155" cy="-76.9225" rx="4.00002" ry="4.00002"/>
<ellipse fill="black" stroke="black" cx="394.33" cy="-33.7435" rx="4.00002" ry="4.00002"/>
</g>
</g>
</svg>
