<?xml version="1.0" encoding="UTF-8" standalone="no"?>
<!DOCTYPE svg PUBLIC "-//W3C//DTD SVG 1.1//EN"
 "http://www.w3.org/Graphics/SVG/1.1/DTD/svg11.dtd">
<!-- Generated by graphviz version 2.28.0 (20111111.1505)
 -->
<!-- Title: models_diagram Pages: 1 -->
<svg width="801pt" height="236pt"
 viewBox="0.00 0.00 801.00 236.00" xmlns="http://www.w3.org/2000/svg" xmlns:xlink="http://www.w3.org/1999/xlink">
<g id="graph1" class="graph" transform="scale(1 1) rotate(0) translate(4 232)">
<title>models_diagram</title>
<polygon fill="white" stroke="white" points="-4,5 -4,-232 798,-232 798,5 -4,5"/>
<!-- _diagram_info -->
<g id="node1" class="node"><title>_diagram_info</title>
<text text-anchor="start" x="70" y="-211.8" font-family="Times,serif" font-size="13.00">Models diagram</text>
<text text-anchor="start" x="70" y="-196.8" font-family="Times,serif" font-size="13.00">Date: Dec 07 2011 &#45; 14:32</text>
<text text-anchor="start" x="70" y="-181.8" font-family="Times,serif" font-size="13.00">Migration version: 20111207180742</text>
<text text-anchor="start" x="70" y="-166.8" font-family="Times,serif" font-size="13.00">Generated by RailRoady 1.0.2</text>
<text text-anchor="start" x="70" y="-151.8" font-family="Times,serif" font-size="13.00">http://railroady.prestonlee.com</text>
</g>
<!-- Chassis -->
<g id="node2" class="node"><title>Chassis</title>
<ellipse fill="none" stroke="black" cx="39" cy="-90" rx="39.3672" ry="18"/>
<text text-anchor="middle" x="39" y="-85.4" font-family="Times,serif" font-size="14.00">Chassis</text>
</g>
<!-- Driver -->
<g id="node3" class="node"><title>Driver</title>
<ellipse fill="none" stroke="black" cx="131" cy="-90" rx="34.3259" ry="18"/>
<text text-anchor="middle" x="131" y="-85.4" font-family="Times,serif" font-size="14.00">Driver</text>
</g>
<!-- Engine -->
<g id="node4" class="node"><title>Engine</title>
<ellipse fill="none" stroke="black" cx="221" cy="-90" rx="37.3485" ry="18"/>
<text text-anchor="middle" x="221" y="-85.4" font-family="Times,serif" font-size="14.00">Engine</text>
</g>
<!-- Supplier -->
<g id="node10" class="node"><title>Supplier</title>
<ellipse fill="none" stroke="black" cx="365" cy="-18" rx="41.8946" ry="18"/>
<text text-anchor="middle" x="365" y="-13.4" font-family="Times,serif" font-size="14.00">Supplier</text>
</g>
<!-- Engine&#45;&gt;Supplier -->
<g id="edge2" class="edge"><title>Engine&#45;&gt;Supplier</title>
<path fill="none" stroke="black" d="M253.649,-73.129C276.6,-61.9721 307.251,-47.0722 330.585,-35.7296"/>
<ellipse fill="none" stroke="black" cx="250.01" cy="-74.8977" rx="4.00002" ry="4.00002"/>
<ellipse fill="black" stroke="black" cx="334.287" cy="-33.93" rx="4.00002" ry="4.00002"/>
</g>
<!-- F1Team -->
<g id="node5" class="node"><title>F1Team</title>
<ellipse fill="none" stroke="black" cx="319" cy="-90" rx="41.8946" ry="18"/>
<text text-anchor="middle" x="319" y="-85.4" font-family="Times,serif" font-size="14.00">F1Team</text>
</g>
<!-- PitCrew -->
<g id="node6" class="node"><title>PitCrew</title>
<ellipse fill="none" stroke="black" cx="421" cy="-90" rx="41.3858" ry="18"/>
<text text-anchor="middle" x="421" y="-85.4" font-family="Times,serif" font-size="14.00">PitCrew</text>
</g>
<!-- RaceMeeting -->
<g id="node7" class="node"><title>RaceMeeting</title>
<ellipse fill="none" stroke="black" cx="732" cy="-90" rx="61.067" ry="18"/>
<text text-anchor="middle" x="732" y="-85.4" font-family="Times,serif" font-size="14.00">RaceMeeting</text>
</g>
<!-- RaceSession -->
<g id="node8" class="node"><title>RaceSession</title>
<ellipse fill="none" stroke="black" cx="732" cy="-18" rx="58.0428" ry="18"/>
<text text-anchor="middle" x="732" y="-13.4" font-family="Times,serif" font-size="14.00">RaceSession</text>
</g>
<!-- RaceMeeting&#45;&gt;RaceSession -->
<g id="edge6" class="edge"><title>RaceMeeting&#45;&gt;RaceSession</title>
<path fill="none" stroke="black" d="M732,-63.6398C732,-58.0629 732,-52.1319 732,-46.4761"/>
<ellipse fill="none" stroke="black" cx="732" cy="-67.6966" rx="4" ry="4"/>
<polygon fill="black" stroke="black" points="732,-46.1043 736.5,-36.1043 732,-41.1043 732,-36.1043 732,-36.1043 732,-36.1043 732,-41.1043 727.5,-36.1044 732,-46.1043 732,-46.1043"/>
</g>
<!-- Season -->
<g id="node9" class="node"><title>Season</title>
<ellipse fill="none" stroke="black" cx="732" cy="-186" rx="37.3485" ry="18"/>
<text text-anchor="middle" x="732" y="-181.4" font-family="Times,serif" font-size="14.00">Season</text>
</g>
<!-- Season&#45;&gt;RaceMeeting -->
<g id="edge8" class="edge"><title>Season&#45;&gt;RaceMeeting</title>
<path fill="none" stroke="black" d="M732,-159.683C732,-146.923 732,-131.432 732,-118.393"/>
<ellipse fill="none" stroke="black" cx="732" cy="-163.759" rx="4" ry="4"/>
<polygon fill="black" stroke="black" points="732,-118.132 736.5,-108.132 732,-113.132 732,-108.132 732,-108.132 732,-108.132 732,-113.132 727.5,-108.132 732,-118.132 732,-118.132"/>
</g>
<!-- Team -->
<g id="node11" class="node"><title>Team</title>
<ellipse fill="none" stroke="black" cx="319" cy="-186" rx="32.3075" ry="18"/>
<text text-anchor="middle" x="319" y="-181.4" font-family="Times,serif" font-size="14.00">Team</text>
</g>
<!-- Team&#45;&gt;Chassis -->
<g id="edge10" class="edge"><title>Team&#45;&gt;Chassis</title>
<path fill="none" stroke="black" d="M300.873,-162.698C294.087,-155.704 285.856,-148.614 277,-144 200.778,-104.288 169.973,-130.412 87,-108 83.3514,-107.014 79.5829,-105.884 75.8362,-104.685"/>
<ellipse fill="none" stroke="black" cx="303.971" cy="-166.073" rx="4.00002" ry="4.00002"/>
<ellipse fill="black" stroke="black" cx="72.0169" cy="-103.413" rx="4.00001" ry="4.00001"/>
</g>
<!-- Team&#45;&gt;Driver -->
<g id="edge12" class="edge"><title>Team&#45;&gt;Driver</title>
<path fill="none" stroke="black" d="M300.132,-163.111C293.378,-156.276 285.356,-149.178 277,-144 235.78,-118.455 219.447,-124.918 174,-108 171.778,-107.173 169.497,-106.311 167.199,-105.432"/>
<ellipse fill="none" stroke="black" cx="303.199" cy="-166.348" rx="4.00002" ry="4.00002"/>
<polygon fill="black" stroke="black" points="167.097,-105.392 159.4,-97.5816 162.435,-103.585 157.773,-101.777 157.773,-101.777 157.773,-101.777 162.435,-103.585 156.146,-105.973 167.097,-105.392 167.097,-105.392"/>
</g>
<!-- Team&#45;&gt;Engine -->
<g id="edge14" class="edge"><title>Team&#45;&gt;Engine</title>
<path fill="none" stroke="black" d="M297.669,-164.052C291.064,-157.599 283.75,-150.488 277,-144 265.971,-133.399 253.629,-121.701 243.344,-111.998"/>
<ellipse fill="none" stroke="black" cx="300.639" cy="-166.958" rx="4.00002" ry="4.00002"/>
<ellipse fill="black" stroke="black" cx="240.148" cy="-108.985" rx="4.00002" ry="4.00002"/>
</g>
<!-- Team&#45;&gt;F1Team -->
<g id="edge4" class="edge"><title>Team&#45;&gt;F1Team</title>
<path fill="none" stroke="black" d="M319,-167.759C319,-150.798 319,-125.055 319,-108.132"/>
</g>
<!-- Team&#45;&gt;PitCrew -->
<g id="edge16" class="edge"><title>Team&#45;&gt;PitCrew</title>
<path fill="none" stroke="black" d="M341.03,-164.697C357.902,-149.149 381.102,-127.769 398.169,-112.04"/>
<ellipse fill="none" stroke="black" cx="337.879" cy="-167.602" rx="4.00002" ry="4.00002"/>
<ellipse fill="black" stroke="black" cx="401.215" cy="-109.233" rx="4.00002" ry="4.00002"/>
</g>
<!-- Tire -->
<g id="node12" class="node"><title>Tire</title>
<ellipse fill="none" stroke="black" cx="508" cy="-90" rx="27" ry="18"/>
<text text-anchor="middle" x="508" y="-85.4" font-family="Times,serif" font-size="14.00">Tire</text>
</g>
<!-- Team&#45;&gt;Tire -->
<g id="edge18" class="edge"><title>Team&#45;&gt;Tire</title>
<path fill="none" stroke="black" d="M349.919,-169.622C385.874,-151.74 444.732,-122.467 479.582,-105.134"/>
<ellipse fill="none" stroke="black" cx="346.136" cy="-171.504" rx="4.00002" ry="4.00002"/>
<ellipse fill="black" stroke="black" cx="483.476" cy="-103.197" rx="4.00002" ry="4.00002"/>
</g>
<!-- UserTeam -->
<g id="node13" class="node"><title>UserTeam</title>
<ellipse fill="none" stroke="black" cx="603" cy="-90" rx="49.9686" ry="18"/>
<text text-anchor="middle" x="603" y="-85.4" font-family="Times,serif" font-size="14.00">UserTeam</text>
</g>
<!-- Team&#45;&gt;UserTeam -->
<g id="edge22" class="edge"><title>Team&#45;&gt;UserTeam</title>
<path fill="none" stroke="black" d="M346.231,-175.987C397.877,-158.893 510.022,-121.775 567.489,-102.754"/>
</g>
<!-- Tire&#45;&gt;Supplier -->
<g id="edge20" class="edge"><title>Tire&#45;&gt;Supplier</title>
<path fill="none" stroke="black" d="M479.681,-75.1375C456.46,-63.7706 423.523,-47.6478 398.901,-35.5949"/>
<ellipse fill="none" stroke="black" cx="483.307" cy="-76.9126" rx="4.00002" ry="4.00002"/>
<ellipse fill="black" stroke="black" cx="395.139" cy="-33.7534" rx="4.00002" ry="4.00002"/>
</g>
</g>
</svg>
