<?xml version="1.0" encoding="UTF-8" standalone="no"?>
<!DOCTYPE svg PUBLIC "-//W3C//DTD SVG 1.1//EN"
 "http://www.w3.org/Graphics/SVG/1.1/DTD/svg11.dtd">
<!-- Generated by graphviz version 2.28.0 (20111111.1505)
 -->
<!-- Title: models_diagram Pages: 1 -->
<svg width="1298pt" height="390pt"
 viewBox="0.00 0.00 1298.00 390.00" xmlns="http://www.w3.org/2000/svg" xmlns:xlink="http://www.w3.org/1999/xlink">
<g id="graph1" class="graph" transform="scale(1 1) rotate(0) translate(4 386)">
<title>models_diagram</title>
<polygon fill="white" stroke="white" points="-4,5 -4,-386 1295,-386 1295,5 -4,5"/>
<!-- _diagram_info -->
<g id="node1" class="node"><title>_diagram_info</title>
<text text-anchor="start" x="85" y="-350.8" font-family="Times,serif" font-size="13.00">Models diagram</text>
<text text-anchor="start" x="85" y="-335.8" font-family="Times,serif" font-size="13.00">Date: Dec 07 2011 &#45; 14:15</text>
<text text-anchor="start" x="85" y="-320.8" font-family="Times,serif" font-size="13.00">Migration version: 20111207180742</text>
<text text-anchor="start" x="85" y="-305.8" font-family="Times,serif" font-size="13.00">Generated by RailRoady 1.0.2</text>
<text text-anchor="start" x="85" y="-290.8" font-family="Times,serif" font-size="13.00">http://railroady.prestonlee.com</text>
</g>
<!-- Chassis -->
<g id="node2" class="node"><title>Chassis</title>
<polyline fill="none" stroke="black" points="313.5,-285 422.5,-285 "/>
<path fill="none" stroke="black" d="M422.5,-285C428.5,-285 434.5,-291 434.5,-297"/>
<polyline fill="none" stroke="black" points="434.5,-297 434.5,-353 "/>
<path fill="none" stroke="black" d="M434.5,-353C434.5,-359 428.5,-365 422.5,-365"/>
<polyline fill="none" stroke="black" points="422.5,-365 313.5,-365 "/>
<path fill="none" stroke="black" d="M313.5,-365C307.5,-365 301.5,-359 301.5,-353"/>
<polyline fill="none" stroke="black" points="301.5,-353 301.5,-297 "/>
<path fill="none" stroke="black" d="M301.5,-297C301.5,-291 307.5,-285 313.5,-285"/>
<text text-anchor="middle" x="368" y="-348.4" font-family="Times,serif" font-size="14.00">Chassis</text>
<polyline fill="none" stroke="black" points="301.5,-341 434.5,-341 "/>
<text text-anchor="start" x="309.5" y="-324.4" font-family="Times,serif" font-size="14.00">name :string</text>
<text text-anchor="start" x="309.5" y="-308.4" font-family="Times,serif" font-size="14.00">created_at :datetime</text>
<text text-anchor="start" x="309.5" y="-292.4" font-family="Times,serif" font-size="14.00">updated_at :datetime</text>
</g>
<!-- Driver -->
<g id="node3" class="node"><title>Driver</title>
<polyline fill="none" stroke="black" points="11.5,-119 120.5,-119 "/>
<path fill="none" stroke="black" d="M120.5,-119C126.5,-119 132.5,-125 132.5,-131"/>
<polyline fill="none" stroke="black" points="132.5,-131 132.5,-219 "/>
<path fill="none" stroke="black" d="M132.5,-219C132.5,-225 126.5,-231 120.5,-231"/>
<polyline fill="none" stroke="black" points="120.5,-231 11.5,-231 "/>
<path fill="none" stroke="black" d="M11.5,-231C5.5,-231 -0.5,-225 -0.5,-219"/>
<polyline fill="none" stroke="black" points="-0.5,-219 -0.5,-131 "/>
<path fill="none" stroke="black" d="M-0.5,-131C-0.5,-125 5.5,-119 11.5,-119"/>
<text text-anchor="middle" x="66" y="-214.4" font-family="Times,serif" font-size="14.00">Driver</text>
<polyline fill="none" stroke="black" points="-0.5,-207 132.5,-207 "/>
<text text-anchor="start" x="7.5" y="-190.4" font-family="Times,serif" font-size="14.00">first_name :string</text>
<text text-anchor="start" x="7.5" y="-174.4" font-family="Times,serif" font-size="14.00">last_name :string</text>
<text text-anchor="start" x="7.5" y="-158.4" font-family="Times,serif" font-size="14.00">country :string</text>
<text text-anchor="start" x="7.5" y="-142.4" font-family="Times,serif" font-size="14.00">created_at :datetime</text>
<text text-anchor="start" x="7.5" y="-126.4" font-family="Times,serif" font-size="14.00">updated_at :datetime</text>
</g>
<!-- Engine -->
<g id="node4" class="node"><title>Engine</title>
<polyline fill="none" stroke="black" points="162.5,-143 271.5,-143 "/>
<path fill="none" stroke="black" d="M271.5,-143C277.5,-143 283.5,-149 283.5,-155"/>
<polyline fill="none" stroke="black" points="283.5,-155 283.5,-195 "/>
<path fill="none" stroke="black" d="M283.5,-195C283.5,-201 277.5,-207 271.5,-207"/>
<polyline fill="none" stroke="black" points="271.5,-207 162.5,-207 "/>
<path fill="none" stroke="black" d="M162.5,-207C156.5,-207 150.5,-201 150.5,-195"/>
<polyline fill="none" stroke="black" points="150.5,-195 150.5,-155 "/>
<path fill="none" stroke="black" d="M150.5,-155C150.5,-149 156.5,-143 162.5,-143"/>
<text text-anchor="middle" x="217" y="-190.4" font-family="Times,serif" font-size="14.00">Engine</text>
<polyline fill="none" stroke="black" points="150.5,-183 283.5,-183 "/>
<text text-anchor="start" x="158.5" y="-166.4" font-family="Times,serif" font-size="14.00">created_at :datetime</text>
<text text-anchor="start" x="158.5" y="-150.4" font-family="Times,serif" font-size="14.00">updated_at :datetime</text>
</g>
<!-- Supplier -->
<g id="node15" class="node"><title>Supplier</title>
<ellipse fill="none" stroke="black" cx="444" cy="-41" rx="41.8946" ry="18"/>
<text text-anchor="middle" x="444" y="-36.4" font-family="Times,serif" font-size="14.00">Supplier</text>
</g>
<!-- Engine&#45;&gt;Supplier -->
<g id="edge2" class="edge"><title>Engine&#45;&gt;Supplier</title>
<path fill="none" stroke="black" d="M262.305,-138.167C271.894,-131.158 282.11,-124.098 292,-118 330.085,-94.5185 376.387,-72.1876 407.806,-57.884"/>
<ellipse fill="none" stroke="black" cx="258.994" cy="-140.618" rx="4.00002" ry="4.00002"/>
<ellipse fill="black" stroke="black" cx="411.815" cy="-56.0723" rx="4.00002" ry="4.00002"/>
</g>
<!-- F1Team -->
<g id="node5" class="node"><title>F1Team</title>
<polyline fill="none" stroke="black" points="313.5,-127 422.5,-127 "/>
<path fill="none" stroke="black" d="M422.5,-127C428.5,-127 434.5,-133 434.5,-139"/>
<polyline fill="none" stroke="black" points="434.5,-139 434.5,-211 "/>
<path fill="none" stroke="black" d="M434.5,-211C434.5,-217 428.5,-223 422.5,-223"/>
<polyline fill="none" stroke="black" points="422.5,-223 313.5,-223 "/>
<path fill="none" stroke="black" d="M313.5,-223C307.5,-223 301.5,-217 301.5,-211"/>
<polyline fill="none" stroke="black" points="301.5,-211 301.5,-139 "/>
<path fill="none" stroke="black" d="M301.5,-139C301.5,-133 307.5,-127 313.5,-127"/>
<text text-anchor="middle" x="368" y="-206.4" font-family="Times,serif" font-size="14.00">F1Team</text>
<polyline fill="none" stroke="black" points="301.5,-199 434.5,-199 "/>
<text text-anchor="start" x="309.5" y="-182.4" font-family="Times,serif" font-size="14.00">name :string</text>
<text text-anchor="start" x="309.5" y="-166.4" font-family="Times,serif" font-size="14.00">country :string</text>
<text text-anchor="start" x="309.5" y="-150.4" font-family="Times,serif" font-size="14.00">created_at :datetime</text>
<text text-anchor="start" x="309.5" y="-134.4" font-family="Times,serif" font-size="14.00">updated_at :datetime</text>
</g>
<!-- PitCrew -->
<g id="node6" class="node"><title>PitCrew</title>
<polyline fill="none" stroke="black" points="464.5,-143 573.5,-143 "/>
<path fill="none" stroke="black" d="M573.5,-143C579.5,-143 585.5,-149 585.5,-155"/>
<polyline fill="none" stroke="black" points="585.5,-155 585.5,-195 "/>
<path fill="none" stroke="black" d="M585.5,-195C585.5,-201 579.5,-207 573.5,-207"/>
<polyline fill="none" stroke="black" points="573.5,-207 464.5,-207 "/>
<path fill="none" stroke="black" d="M464.5,-207C458.5,-207 452.5,-201 452.5,-195"/>
<polyline fill="none" stroke="black" points="452.5,-195 452.5,-155 "/>
<path fill="none" stroke="black" d="M452.5,-155C452.5,-149 458.5,-143 464.5,-143"/>
<text text-anchor="middle" x="519" y="-190.4" font-family="Times,serif" font-size="14.00">PitCrew</text>
<polyline fill="none" stroke="black" points="452.5,-183 585.5,-183 "/>
<text text-anchor="start" x="460.5" y="-166.4" font-family="Times,serif" font-size="14.00">created_at :datetime</text>
<text text-anchor="start" x="460.5" y="-150.4" font-family="Times,serif" font-size="14.00">updated_at :datetime</text>
</g>
<!-- RaceMeeting -->
<g id="node7" class="node"><title>RaceMeeting</title>
<polyline fill="none" stroke="black" points="1008.5,-127 1117.5,-127 "/>
<path fill="none" stroke="black" d="M1117.5,-127C1123.5,-127 1129.5,-133 1129.5,-139"/>
<polyline fill="none" stroke="black" points="1129.5,-139 1129.5,-211 "/>
<path fill="none" stroke="black" d="M1129.5,-211C1129.5,-217 1123.5,-223 1117.5,-223"/>
<polyline fill="none" stroke="black" points="1117.5,-223 1008.5,-223 "/>
<path fill="none" stroke="black" d="M1008.5,-223C1002.5,-223 996.5,-217 996.5,-211"/>
<polyline fill="none" stroke="black" points="996.5,-211 996.5,-139 "/>
<path fill="none" stroke="black" d="M996.5,-139C996.5,-133 1002.5,-127 1008.5,-127"/>
<text text-anchor="middle" x="1063" y="-206.4" font-family="Times,serif" font-size="14.00">RaceMeeting</text>
<polyline fill="none" stroke="black" points="996.5,-199 1129.5,-199 "/>
<text text-anchor="start" x="1004.5" y="-182.4" font-family="Times,serif" font-size="14.00">name :string</text>
<text text-anchor="start" x="1004.5" y="-166.4" font-family="Times,serif" font-size="14.00">location :string</text>
<text text-anchor="start" x="1004.5" y="-150.4" font-family="Times,serif" font-size="14.00">created_at :datetime</text>
<text text-anchor="start" x="1004.5" y="-134.4" font-family="Times,serif" font-size="14.00">updated_at :datetime</text>
</g>
<!-- RaceSession -->
<g id="node8" class="node"><title>RaceSession</title>
<polyline fill="none" stroke="black" points="1008.5,-1 1117.5,-1 "/>
<path fill="none" stroke="black" d="M1117.5,-1C1123.5,-1 1129.5,-7 1129.5,-13"/>
<polyline fill="none" stroke="black" points="1129.5,-13 1129.5,-69 "/>
<path fill="none" stroke="black" d="M1129.5,-69C1129.5,-75 1123.5,-81 1117.5,-81"/>
<polyline fill="none" stroke="black" points="1117.5,-81 1008.5,-81 "/>
<path fill="none" stroke="black" d="M1008.5,-81C1002.5,-81 996.5,-75 996.5,-69"/>
<polyline fill="none" stroke="black" points="996.5,-69 996.5,-13 "/>
<path fill="none" stroke="black" d="M996.5,-13C996.5,-7 1002.5,-1 1008.5,-1"/>
<text text-anchor="middle" x="1063" y="-64.4" font-family="Times,serif" font-size="14.00">RaceSession</text>
<polyline fill="none" stroke="black" points="996.5,-57 1129.5,-57 "/>
<text text-anchor="start" x="1004.5" y="-40.4" font-family="Times,serif" font-size="14.00">qualifying :boolean</text>
<text text-anchor="start" x="1004.5" y="-24.4" font-family="Times,serif" font-size="14.00">created_at :datetime</text>
<text text-anchor="start" x="1004.5" y="-8.4" font-family="Times,serif" font-size="14.00">updated_at :datetime</text>
</g>
<!-- RaceMeeting&#45;&gt;RaceSession -->
<g id="edge6" class="edge"><title>RaceMeeting&#45;&gt;RaceSession</title>
<path fill="none" stroke="black" d="M1063,-118.547C1063,-109.506 1063,-100.194 1063,-91.3134"/>
<ellipse fill="none" stroke="black" cx="1063" cy="-122.718" rx="4" ry="4"/>
<polygon fill="black" stroke="black" points="1063,-91.1285 1067.5,-81.1284 1063,-86.1285 1063,-81.1285 1063,-81.1285 1063,-81.1285 1063,-86.1285 1058.5,-81.1285 1063,-91.1285 1063,-91.1285"/>
</g>
<!-- Season -->
<g id="node9" class="node"><title>Season</title>
<polyline fill="none" stroke="black" points="1008.5,-269 1117.5,-269 "/>
<path fill="none" stroke="black" d="M1117.5,-269C1123.5,-269 1129.5,-275 1129.5,-281"/>
<polyline fill="none" stroke="black" points="1129.5,-281 1129.5,-369 "/>
<path fill="none" stroke="black" d="M1129.5,-369C1129.5,-375 1123.5,-381 1117.5,-381"/>
<polyline fill="none" stroke="black" points="1117.5,-381 1008.5,-381 "/>
<path fill="none" stroke="black" d="M1008.5,-381C1002.5,-381 996.5,-375 996.5,-369"/>
<polyline fill="none" stroke="black" points="996.5,-369 996.5,-281 "/>
<path fill="none" stroke="black" d="M996.5,-281C996.5,-275 1002.5,-269 1008.5,-269"/>
<text text-anchor="middle" x="1063" y="-364.4" font-family="Times,serif" font-size="14.00">Season</text>
<polyline fill="none" stroke="black" points="996.5,-357 1129.5,-357 "/>
<text text-anchor="start" x="1004.5" y="-340.4" font-family="Times,serif" font-size="14.00">name :string</text>
<text text-anchor="start" x="1004.5" y="-324.4" font-family="Times,serif" font-size="14.00">start_date :date</text>
<text text-anchor="start" x="1004.5" y="-308.4" font-family="Times,serif" font-size="14.00">end_date :date</text>
<text text-anchor="start" x="1004.5" y="-292.4" font-family="Times,serif" font-size="14.00">created_at :datetime</text>
<text text-anchor="start" x="1004.5" y="-276.4" font-family="Times,serif" font-size="14.00">updated_at :datetime</text>
</g>
<!-- Season&#45;&gt;RaceMeeting -->
<g id="edge8" class="edge"><title>Season&#45;&gt;RaceMeeting</title>
<path fill="none" stroke="black" d="M1063,-260.736C1063,-251.734 1063,-242.515 1063,-233.629"/>
<ellipse fill="none" stroke="black" cx="1063" cy="-264.89" rx="4" ry="4"/>
<polygon fill="black" stroke="black" points="1063,-233.381 1067.5,-223.381 1063,-228.381 1063,-223.381 1063,-223.381 1063,-223.381 1063,-228.381 1058.5,-223.382 1063,-233.381 1063,-233.381"/>
</g>
<!-- Suppliers -->
<g id="node10" class="node"><title>Suppliers</title>
<polyline fill="none" stroke="black" points="1160,-277 1278,-277 "/>
<path fill="none" stroke="black" d="M1278,-277C1284,-277 1290,-283 1290,-289"/>
<polyline fill="none" stroke="black" points="1290,-289 1290,-361 "/>
<path fill="none" stroke="black" d="M1290,-361C1290,-367 1284,-373 1278,-373"/>
<polyline fill="none" stroke="black" points="1278,-373 1160,-373 "/>
<path fill="none" stroke="black" d="M1160,-373C1154,-373 1148,-367 1148,-361"/>
<polyline fill="none" stroke="black" points="1148,-361 1148,-289 "/>
<path fill="none" stroke="black" d="M1148,-289C1148,-283 1154,-277 1160,-277"/>
<text text-anchor="middle" x="1219" y="-356.4" font-family="Times,serif" font-size="14.00">Suppliers</text>
<polyline fill="none" stroke="black" points="1148,-349 1290,-349 "/>
<text text-anchor="start" x="1156" y="-332.4" font-family="Times,serif" font-size="14.00">name :string</text>
<text text-anchor="start" x="1156" y="-316.4" font-family="Times,serif" font-size="14.00">suppliable_type :string</text>
<text text-anchor="start" x="1156" y="-300.4" font-family="Times,serif" font-size="14.00">created_at :datetime</text>
<text text-anchor="start" x="1156" y="-284.4" font-family="Times,serif" font-size="14.00">updated_at :datetime</text>
</g>
<!-- Team -->
<g id="node11" class="node"><title>Team</title>
<polyline fill="none" stroke="black" points="464.5,-277 573.5,-277 "/>
<path fill="none" stroke="black" d="M573.5,-277C579.5,-277 585.5,-283 585.5,-289"/>
<polyline fill="none" stroke="black" points="585.5,-289 585.5,-361 "/>
<path fill="none" stroke="black" d="M585.5,-361C585.5,-367 579.5,-373 573.5,-373"/>
<polyline fill="none" stroke="black" points="573.5,-373 464.5,-373 "/>
<path fill="none" stroke="black" d="M464.5,-373C458.5,-373 452.5,-367 452.5,-361"/>
<polyline fill="none" stroke="black" points="452.5,-361 452.5,-289 "/>
<path fill="none" stroke="black" d="M452.5,-289C452.5,-283 458.5,-277 464.5,-277"/>
<text text-anchor="middle" x="519" y="-356.4" font-family="Times,serif" font-size="14.00">Team</text>
<polyline fill="none" stroke="black" points="452.5,-349 585.5,-349 "/>
<text text-anchor="start" x="460.5" y="-332.4" font-family="Times,serif" font-size="14.00">name :string</text>
<text text-anchor="start" x="460.5" y="-316.4" font-family="Times,serif" font-size="14.00">country :string</text>
<text text-anchor="start" x="460.5" y="-300.4" font-family="Times,serif" font-size="14.00">created_at :datetime</text>
<text text-anchor="start" x="460.5" y="-284.4" font-family="Times,serif" font-size="14.00">updated_at :datetime</text>
</g>
<!-- Team&#45;&gt;Driver -->
<g id="edge12" class="edge"><title>Team&#45;&gt;Driver</title>
<path fill="none" stroke="black" d="M453.778,-272.893C450.221,-271.081 446.619,-269.432 443,-268 320.381,-219.474 269.054,-279.087 142.538,-232.124"/>
<ellipse fill="none" stroke="black" cx="457.492" cy="-274.915" rx="4.00002" ry="4.00002"/>
<polygon fill="black" stroke="black" points="142.223,-232.003 134.52,-224.198 137.56,-230.199 132.896,-228.395 132.896,-228.395 132.896,-228.395 137.56,-230.199 131.273,-232.592 142.223,-232.003 142.223,-232.003"/>
</g>
<!-- Team&#45;&gt;Engine -->
<g id="edge14" class="edge"><title>Team&#45;&gt;Engine</title>
<path fill="none" stroke="black" d="M452.26,-272.686C449.187,-271.009 446.094,-269.436 443,-268 380.42,-238.955 354.488,-261.243 292,-232 280.651,-226.689 269.334,-219.497 259.06,-212.038"/>
<ellipse fill="none" stroke="black" cx="455.912" cy="-274.784" rx="4.00002" ry="4.00002"/>
<ellipse fill="black" stroke="black" cx="255.674" cy="-209.509" rx="4.00002" ry="4.00002"/>
</g>
<!-- Team&#45;&gt;F1Team -->
<g id="edge4" class="edge"><title>Team&#45;&gt;F1Team</title>
<path fill="none" stroke="black" d="M470.807,-276.765C453.286,-259.592 433.498,-240.196 415.994,-223.04"/>
</g>
<!-- Team&#45;&gt;PitCrew -->
<g id="edge16" class="edge"><title>Team&#45;&gt;PitCrew</title>
<path fill="none" stroke="black" d="M519,-268.651C519,-251.031 519,-231.901 519,-215.624"/>
<ellipse fill="none" stroke="black" cx="519" cy="-272.765" rx="4" ry="4"/>
<ellipse fill="black" stroke="black" cx="519" cy="-211.395" rx="4" ry="4"/>
</g>
<!-- Tire -->
<g id="node12" class="node"><title>Tire</title>
<polyline fill="none" stroke="black" points="615.5,-135 724.5,-135 "/>
<path fill="none" stroke="black" d="M724.5,-135C730.5,-135 736.5,-141 736.5,-147"/>
<polyline fill="none" stroke="black" points="736.5,-147 736.5,-203 "/>
<path fill="none" stroke="black" d="M736.5,-203C736.5,-209 730.5,-215 724.5,-215"/>
<polyline fill="none" stroke="black" points="724.5,-215 615.5,-215 "/>
<path fill="none" stroke="black" d="M615.5,-215C609.5,-215 603.5,-209 603.5,-203"/>
<polyline fill="none" stroke="black" points="603.5,-203 603.5,-147 "/>
<path fill="none" stroke="black" d="M603.5,-147C603.5,-141 609.5,-135 615.5,-135"/>
<text text-anchor="middle" x="670" y="-198.4" font-family="Times,serif" font-size="14.00">Tire</text>
<polyline fill="none" stroke="black" points="603.5,-191 736.5,-191 "/>
<text text-anchor="start" x="611.5" y="-174.4" font-family="Times,serif" font-size="14.00">name :string</text>
<text text-anchor="start" x="611.5" y="-158.4" font-family="Times,serif" font-size="14.00">created_at :datetime</text>
<text text-anchor="start" x="611.5" y="-142.4" font-family="Times,serif" font-size="14.00">updated_at :datetime</text>
</g>
<!-- Team&#45;&gt;Tire -->
<g id="edge18" class="edge"><title>Team&#45;&gt;Tire</title>
<path fill="none" stroke="black" d="M572.947,-271.125C589.654,-254.749 607.899,-236.867 624.015,-221.071"/>
<ellipse fill="none" stroke="black" cx="570.049" cy="-273.965" rx="4.00002" ry="4.00002"/>
<ellipse fill="black" stroke="black" cx="626.993" cy="-218.153" rx="4.00002" ry="4.00002"/>
</g>
<!-- UserTeam -->
<g id="node13" class="node"><title>UserTeam</title>
<polyline fill="none" stroke="black" points="766.5,-127 875.5,-127 "/>
<path fill="none" stroke="black" d="M875.5,-127C881.5,-127 887.5,-133 887.5,-139"/>
<polyline fill="none" stroke="black" points="887.5,-139 887.5,-211 "/>
<path fill="none" stroke="black" d="M887.5,-211C887.5,-217 881.5,-223 875.5,-223"/>
<polyline fill="none" stroke="black" points="875.5,-223 766.5,-223 "/>
<path fill="none" stroke="black" d="M766.5,-223C760.5,-223 754.5,-217 754.5,-211"/>
<polyline fill="none" stroke="black" points="754.5,-211 754.5,-139 "/>
<path fill="none" stroke="black" d="M754.5,-139C754.5,-133 760.5,-127 766.5,-127"/>
<text text-anchor="middle" x="821" y="-206.4" font-family="Times,serif" font-size="14.00">UserTeam</text>
<polyline fill="none" stroke="black" points="754.5,-199 887.5,-199 "/>
<text text-anchor="start" x="762.5" y="-182.4" font-family="Times,serif" font-size="14.00">name :string</text>
<text text-anchor="start" x="762.5" y="-166.4" font-family="Times,serif" font-size="14.00">country :string</text>
<text text-anchor="start" x="762.5" y="-150.4" font-family="Times,serif" font-size="14.00">created_at :datetime</text>
<text text-anchor="start" x="762.5" y="-134.4" font-family="Times,serif" font-size="14.00">updated_at :datetime</text>
</g>
<!-- Team&#45;&gt;UserTeam -->
<g id="edge22" class="edge"><title>Team&#45;&gt;UserTeam</title>
<path fill="none" stroke="black" d="M585.78,-301.776C631.866,-285.259 693.817,-260.684 745,-232 749.861,-229.276 754.772,-226.287 759.632,-223.153"/>
</g>
<!-- Chassi -->
<g id="node20" class="node"><title>Chassi</title>
<ellipse fill="none" stroke="black" cx="942" cy="-175" rx="36.3372" ry="18"/>
<text text-anchor="middle" x="942" y="-170.4" font-family="Times,serif" font-size="14.00">Chassi</text>
</g>
<!-- Team&#45;&gt;Chassi -->
<g id="edge10" class="edge"><title>Team&#45;&gt;Chassi</title>
<path fill="none" stroke="black" d="M593.664,-319.695C673.869,-312.054 802.395,-290.848 896,-232 908.967,-223.848 920.003,-210.786 928.013,-199.327"/>
<ellipse fill="none" stroke="black" cx="589.558" cy="-320.071" rx="4" ry="4"/>
<ellipse fill="black" stroke="black" cx="930.378" cy="-195.784" rx="4.00002" ry="4.00002"/>
</g>
<!-- Tire&#45;&gt;Supplier -->
<g id="edge20" class="edge"><title>Tire&#45;&gt;Supplier</title>
<path fill="none" stroke="black" d="M612.623,-130.192C606.433,-125.929 600.149,-121.787 594,-118 556.304,-94.7845 510.632,-72.4045 479.661,-58.0167"/>
<ellipse fill="none" stroke="black" cx="616.014" cy="-132.563" rx="4.00002" ry="4.00002"/>
<ellipse fill="black" stroke="black" cx="475.75" cy="-56.2115" rx="4.00002" ry="4.00002"/>
</g>
</g>
</svg>
